<svg width="20" height="25" viewBox="0 0 20 25" fill="none" xmlns="http://www.w3.org/2000/svg">
<path d="M6.12994 4.76663C4.15268 4.76663 1.98712 4.76661 0.53125 4.76661C1.32475 4.76662 2.08644 4.44606 2.39748 6.3694C2.73481 8.45532 3.12324 17.482 3.33059 21.7561C3.43427 22.5041 4.01488 24 5.50786 24C7.00085 24 12.5581 24 15.15 24C15.8758 23.8931 17.3273 23.2948 17.3273 21.7561C17.3273 20.2201 17.3273 9.57499 18.2604 5.40777C18.4097 4.741 18.8155 4.76661 19.5046 4.76661C19.8276 4.76661 17.1729 4.76658 13.9059 4.76658M6.12994 4.76663C6.12994 4.44597 6.06451 3.61931 6.44098 2.84327C6.75202 2.20212 7.06305 1.56101 8.3072 1.24041C9.55135 0.919811 10.4845 0.919915 11.7286 1.24041C12.9728 1.5609 13.3456 2.32953 13.5949 2.84327C13.9467 3.56861 13.9059 3.80492 13.9059 4.76658M6.12994 4.76663C8.946 4.76663 11.389 4.76658 13.9059 4.76658" stroke="#68745C"/>
</svg>
