<svg width="15" height="15" viewBox="0 0 15 15" fill="none" xmlns="http://www.w3.org/2000/svg">
<path d="M8.21169 0.786377C8.97536 0.787639 9.36235 0.791677 9.69675 0.801631L9.82846 0.80594C9.98059 0.811348 10.1307 0.818134 10.3117 0.826616C11.0337 0.859975 11.5263 0.974206 11.9589 1.14215C12.4061 1.31462 12.7839 1.5476 13.1611 1.92477C13.5377 2.30194 13.7707 2.68081 13.9437 3.12697C14.1111 3.55899 14.2253 4.05209 14.2593 4.77421C14.2673 4.95515 14.2738 5.10525 14.2792 5.25742L14.2835 5.38912C14.2934 5.72349 14.2979 6.11053 14.2994 6.87419L14.2999 7.38021C14.3 7.44202 14.3 7.50581 14.3 7.57163L14.2999 7.76305L14.2995 8.26907C14.2982 9.03273 14.2942 9.41972 14.2842 9.75412L14.2799 9.88583C14.2745 10.038 14.2677 10.1881 14.2593 10.369C14.2259 11.0911 14.1111 11.5837 13.9437 12.0163C13.7712 12.4635 13.5377 12.8413 13.1611 13.2184C12.7839 13.595 12.4045 13.8281 11.9589 14.0011C11.5263 14.1684 11.0337 14.2827 10.3117 14.3166C10.1307 14.3247 9.98059 14.3312 9.82846 14.3366L9.69675 14.3409C9.36235 14.3508 8.97536 14.3553 8.21169 14.3567L7.70568 14.3573C7.64386 14.3573 7.58008 14.3573 7.51426 14.3573L7.32283 14.3573L6.81682 14.3569C6.05316 14.3556 5.66611 14.3516 5.33175 14.3416L5.20005 14.3373C5.04788 14.3319 4.89778 14.3251 4.71683 14.3166C3.99472 14.2832 3.50275 14.1684 3.0696 14.0011C2.62287 13.8286 2.24457 13.595 1.8674 13.2184C1.49023 12.8413 1.25781 12.4618 1.08478 12.0163C0.916833 11.5837 0.803172 11.0911 0.769243 10.369C0.761182 10.1881 0.754606 10.038 0.74928 9.88583L0.745011 9.75412C0.735084 9.41972 0.730558 9.03273 0.729092 8.26907L0.729004 6.87419C0.730266 6.11053 0.734304 5.72349 0.744258 5.38912L0.748567 5.25742C0.753975 5.10525 0.760761 4.95515 0.769243 4.77421C0.802602 4.05153 0.916833 3.55956 1.08478 3.12697C1.25724 2.68024 1.49023 2.30194 1.8674 1.92477C2.24457 1.5476 2.62344 1.31519 3.0696 1.14215C3.50219 0.974206 3.99415 0.860545 4.71683 0.826616C4.89778 0.818555 5.04788 0.811979 5.20005 0.806653L5.33175 0.802385C5.66611 0.792457 6.05316 0.787931 6.81682 0.786465L8.21169 0.786377ZM7.51426 4.17876C5.63942 4.17876 4.12139 5.69844 4.12139 7.57163C4.12139 9.44646 5.64107 10.9645 7.51426 10.9645C9.38908 10.9645 10.9071 9.44476 10.9071 7.57163C10.9071 5.69679 9.38739 4.17876 7.51426 4.17876ZM7.51426 5.5359C8.63858 5.5359 9.54997 6.44697 9.54997 7.57163C9.54997 8.69596 8.63885 9.60735 7.51426 9.60735C6.38993 9.60735 5.47853 8.69623 5.47853 7.57163C5.47853 6.44731 6.38959 5.5359 7.51426 5.5359ZM11.0768 3.1609C10.609 3.1609 10.2285 3.54083 10.2285 4.00854C10.2285 4.47624 10.6085 4.85676 11.0768 4.85676C11.5444 4.85676 11.925 4.47683 11.925 4.00854C11.925 3.54083 11.5438 3.16031 11.0768 3.1609Z" fill="#1E2320"/>
</svg>
