<svg width="27" height="28" viewBox="0 0 27 28" fill="none" xmlns="http://www.w3.org/2000/svg">
<path d="M13.5 25.3025C19.7132 25.3025 24.75 20.2657 24.75 14.0525C24.75 7.83929 19.7132 2.80249 13.5 2.80249C7.2868 2.80249 2.25 7.83929 2.25 14.0525C2.25 20.2657 7.2868 25.3025 13.5 25.3025Z" stroke="#979797" stroke-width="2" stroke-linecap="round" stroke-linejoin="round"/>
<path d="M10.711 8.78049C10.903 8.60649 11.113 8.44149 11.341 8.28549C11.569 8.12949 11.818 7.99149 12.088 7.87149C12.358 7.75149 12.649 7.65849 12.961 7.59249C13.279 7.52049 13.621 7.48449 13.987 7.48449C14.473 7.48449 14.92 7.55349 15.328 7.69149C15.742 7.82949 16.096 8.02749 16.39 8.28549C16.69 8.54349 16.924 8.85549 17.092 9.22149C17.26 9.58149 17.344 9.98649 17.344 10.4365C17.344 10.8925 17.275 11.2885 17.137 11.6245C17.005 11.9545 16.837 12.2425 16.633 12.4885C16.429 12.7345 16.204 12.9505 15.958 13.1365C15.718 13.3165 15.49 13.4875 15.274 13.6495C15.064 13.8115 14.881 13.9735 14.725 14.1355C14.575 14.2915 14.485 14.4685 14.455 14.6665L14.284 16.0255H13.087L12.961 14.5405C12.931 14.2645 12.979 14.0245 13.105 13.8205C13.231 13.6165 13.393 13.4275 13.591 13.2535C13.795 13.0735 14.02 12.8995 14.266 12.7315C14.512 12.5635 14.74 12.3775 14.95 12.1735C15.16 11.9635 15.337 11.7295 15.481 11.4715C15.625 11.2075 15.697 10.8955 15.697 10.5355C15.697 10.2895 15.649 10.0675 15.553 9.86949C15.457 9.67149 15.325 9.50349 15.157 9.36549C14.989 9.22149 14.791 9.11349 14.563 9.04149C14.335 8.96349 14.092 8.92449 13.834 8.92449C13.474 8.92449 13.168 8.96949 12.916 9.05949C12.664 9.14349 12.448 9.23649 12.268 9.33849C12.094 9.44049 11.95 9.53649 11.836 9.62649C11.722 9.71049 11.626 9.75249 11.548 9.75249C11.374 9.75249 11.248 9.67749 11.17 9.52749L10.711 8.78049ZM12.457 19.4995C12.457 19.3375 12.487 19.1845 12.547 19.0405C12.607 18.8965 12.688 18.7705 12.79 18.6625C12.898 18.5545 13.024 18.4705 13.168 18.4105C13.312 18.3445 13.468 18.3115 13.636 18.3115C13.798 18.3115 13.951 18.3445 14.095 18.4105C14.239 18.4705 14.365 18.5545 14.473 18.6625C14.581 18.7705 14.665 18.8965 14.725 19.0405C14.791 19.1845 14.824 19.3375 14.824 19.4995C14.824 19.6675 14.791 19.8235 14.725 19.9675C14.665 20.1115 14.581 20.2375 14.473 20.3455C14.365 20.4535 14.239 20.5375 14.095 20.5975C13.951 20.6575 13.798 20.6875 13.636 20.6875C13.468 20.6875 13.312 20.6575 13.168 20.5975C13.024 20.5375 12.898 20.4535 12.79 20.3455C12.688 20.2375 12.607 20.1115 12.547 19.9675C12.487 19.8235 12.457 19.6675 12.457 19.4995Z" fill="#888888"/>
</svg>
