<svg width="19" height="19" viewBox="0 0 19 19" fill="none" xmlns="http://www.w3.org/2000/svg">
<path d="M8.6875 15.2339C12.6225 15.2339 15.8125 12.0439 15.8125 8.10889C15.8125 4.17386 12.6225 0.983887 8.6875 0.983887C4.75247 0.983887 1.5625 4.17386 1.5625 8.10889C1.5625 12.0439 4.75247 15.2339 8.6875 15.2339Z" stroke="#1E2320" stroke-linecap="round" stroke-linejoin="round"/>
<path d="M16.2089 17.0874C16.4042 17.2827 16.7208 17.2827 16.9161 17.0874C17.1113 16.8922 17.1113 16.5756 16.9161 16.3803L16.2089 17.0874ZM14.2911 13.7553L13.9375 13.4018L13.2304 14.1089L13.5839 14.4624L14.2911 13.7553ZM16.9161 16.3803L14.2911 13.7553L13.5839 14.4624L16.2089 17.0874L16.9161 16.3803Z" fill="#1E2320"/>
</svg>
