<svg width="19" height="21" viewBox="0 0 19 21" fill="none" xmlns="http://www.w3.org/2000/svg">
<path d="M18.3239 11.9795L18.3203 12.4795L18.8203 12.4831L18.8239 11.9832L18.3239 11.9795ZM11.4636 15.5481L10.9691 15.4742L11.4636 15.5481ZM8.57292 17.3362L9.06402 17.2423L8.57292 17.3362ZM8.61234 11.909L9.10951 11.9621L9.16812 11.413L8.61597 11.409L8.61234 11.909ZM2.13794 11.862L2.14157 11.362L2.14147 11.362L2.13794 11.862ZM2.8752 9.40383L3.00433 9.88687C3.22474 9.82795 3.37731 9.6273 3.37518 9.39916C3.37305 9.17101 3.21675 8.97325 2.99528 8.91846L2.8752 9.40383ZM2.8941 6.80187L2.89047 7.30185C3.14741 7.30372 3.36394 7.11053 3.39127 6.85503C3.41859 6.59953 3.2478 6.36492 2.99627 6.31242L2.8941 6.80187ZM2.91512 3.90734L3.01017 4.39822C3.21888 4.35781 3.37922 4.18984 3.40989 3.97948C3.44056 3.76912 3.33486 3.56237 3.14638 3.46404L2.91512 3.90734ZM11.5687 1.0755L11.9352 0.735391L11.7883 0.577086L11.5723 0.575517L11.5687 1.0755ZM14.0865 1.09379L14.0901 0.593801L13.8843 0.592306L13.737 0.736175L14.0865 1.09379ZM18.4028 1.12513L18.9027 1.12876L18.9064 0.628775L18.4064 0.625144L18.4028 1.12513ZM18.3276 11.4795L14.0113 11.4482L14.004 12.4482L18.3203 12.4795L18.3276 11.4795ZM13.7863 11.4999C12.968 11.904 11.303 13.2393 10.9691 15.4742L11.9581 15.6219C12.229 13.8087 13.6033 12.7055 14.2291 12.3965L13.7863 11.4999ZM10.9691 15.4742C10.7639 16.8468 11.052 17.9315 11.2256 18.6521C11.3194 19.0416 11.356 19.243 11.343 19.3648C11.3386 19.4058 11.3313 19.4011 11.3435 19.3864C11.3541 19.3736 11.3485 19.3911 11.2765 19.4146L11.5876 20.365C11.786 20.3001 11.9724 20.1946 12.1134 20.0245C12.2561 19.8524 12.3176 19.656 12.3373 19.471C12.3726 19.1409 12.2785 18.7533 12.1978 18.4179C12.0221 17.6886 11.7851 16.7794 11.9581 15.6219L10.9691 15.4742ZM11.2765 19.4146C10.9533 19.5204 10.5026 19.4287 10.0508 19.0443C9.60723 18.667 9.21741 18.0442 9.06402 17.2423L8.08183 17.4302C8.27499 18.44 8.77389 19.271 9.40283 19.806C10.0235 20.334 10.8291 20.6133 11.5876 20.365L11.2765 19.4146ZM9.06402 17.2423C8.93635 16.5749 8.91191 15.566 8.94023 14.5449C8.96825 13.5345 9.04641 12.5532 9.10951 11.9621L8.11516 11.8559C8.04961 12.47 7.96944 13.4776 7.94061 14.5172C7.91208 15.5461 7.93226 16.6483 8.08183 17.4302L9.06402 17.2423ZM8.61597 11.409L2.14157 11.362L2.13431 12.362L8.60871 12.409L8.61597 11.409ZM4.01157 1.52064C4.01438 1.52066 4.0172 1.52068 4.02003 1.5207C4.02286 1.52072 4.0257 1.52074 4.02855 1.52076C4.0314 1.52078 4.03426 1.5208 4.03712 1.52083C4.03999 1.52085 4.04287 1.52087 4.04575 1.52089C4.04864 1.52091 4.05154 1.52093 4.05444 1.52095C4.05735 1.52097 4.06026 1.52099 4.06319 1.52101C4.06611 1.52104 4.06904 1.52106 4.07199 1.52108C4.07493 1.5211 4.07788 1.52112 4.08084 1.52114C4.0838 1.52116 4.08678 1.52119 4.08976 1.52121C4.09274 1.52123 4.09573 1.52125 4.09872 1.52127C4.10172 1.52129 4.10473 1.52132 4.10775 1.52134C4.11077 1.52136 4.11379 1.52138 4.11683 1.5214C4.11987 1.52143 4.12291 1.52145 4.12596 1.52147C4.12902 1.52149 4.13208 1.52152 4.13516 1.52154C4.13823 1.52156 4.14131 1.52158 4.1444 1.5216C4.14749 1.52163 4.15059 1.52165 4.1537 1.52167C4.15681 1.52169 4.15993 1.52172 4.16306 1.52174C4.16618 1.52176 4.16932 1.52179 4.17247 1.52181C4.17561 1.52183 4.17877 1.52185 4.18193 1.52188C4.18509 1.5219 4.18826 1.52192 4.19145 1.52195C4.19463 1.52197 4.19782 1.52199 4.20102 1.52202C4.20422 1.52204 4.20742 1.52206 4.21064 1.52209C4.21386 1.52211 4.21709 1.52213 4.22032 1.52216C4.22355 1.52218 4.2268 1.5222 4.23005 1.52223C4.2333 1.52225 4.23656 1.52227 4.23984 1.5223C4.24311 1.52232 4.24638 1.52235 4.24967 1.52237C4.25296 1.52239 4.25626 1.52242 4.25956 1.52244C4.26287 1.52246 4.26618 1.52249 4.2695 1.52251C4.27283 1.52254 4.27616 1.52256 4.2795 1.52259C4.28284 1.52261 4.28619 1.52263 4.28954 1.52266C4.2929 1.52268 4.29627 1.52271 4.29964 1.52273C4.30302 1.52276 4.3064 1.52278 4.30979 1.52281C4.31318 1.52283 4.31658 1.52286 4.31999 1.52288C4.3234 1.5229 4.32682 1.52293 4.33025 1.52295C4.33367 1.52298 4.33711 1.523 4.34055 1.52303C4.34399 1.52305 4.34744 1.52308 4.3509 1.5231C4.35436 1.52313 4.35783 1.52315 4.36131 1.52318C4.36479 1.52321 4.36827 1.52323 4.37176 1.52326C4.37526 1.52328 4.37876 1.52331 4.38227 1.52333C4.38578 1.52336 4.3893 1.52338 4.39283 1.52341C4.39635 1.52343 4.39989 1.52346 4.40343 1.52349C4.40698 1.52351 4.41053 1.52354 4.41409 1.52356C4.41765 1.52359 4.42122 1.52361 4.42479 1.52364C4.42837 1.52367 4.43195 1.52369 4.43555 1.52372C4.43914 1.52374 4.44274 1.52377 4.44635 1.5238C4.44996 1.52382 4.45358 1.52385 4.4572 1.52388C4.46083 1.5239 4.46446 1.52393 4.4681 1.52396C4.47175 1.52398 4.4754 1.52401 4.47905 1.52403C4.48271 1.52406 4.48638 1.52409 4.49005 1.52411C4.49373 1.52414 4.49741 1.52417 4.5011 1.52419C4.50479 1.52422 4.50849 1.52425 4.51219 1.52428C4.5159 1.5243 4.51961 1.52433 4.52334 1.52436C4.52706 1.52438 4.53079 1.52441 4.53453 1.52444C4.53826 1.52446 4.54201 1.52449 4.54576 1.52452C4.54952 1.52455 4.55328 1.52457 4.55705 1.5246C4.56082 1.52463 4.56459 1.52466 4.56838 1.52468C4.57216 1.52471 4.57596 1.52474 4.57976 1.52477C4.58356 1.52479 4.58737 1.52482 4.59118 1.52485C4.595 1.52488 4.59882 1.5249 4.60265 1.52493C4.60648 1.52496 4.61032 1.52499 4.61417 1.52502C4.61802 1.52504 4.62187 1.52507 4.62573 1.5251C4.6296 1.52513 4.63347 1.52516 4.63734 1.52518C4.64122 1.52521 4.64511 1.52524 4.649 1.52527C4.65289 1.5253 4.65679 1.52533 4.6607 1.52535C4.66461 1.52538 4.66852 1.52541 4.67244 1.52544C4.67637 1.52547 4.6803 1.5255 4.68424 1.52552C4.68817 1.52555 4.69212 1.52558 4.69607 1.52561C4.70002 1.52564 4.70398 1.52567 4.70795 1.5257C4.71192 1.52573 4.7159 1.52575 4.71988 1.52578C4.72386 1.52581 4.72785 1.52584 4.73185 1.52587C4.73584 1.5259 4.73985 1.52593 4.74386 1.52596C4.74787 1.52599 4.75189 1.52602 4.75592 1.52605C4.75994 1.52607 4.76398 1.5261 4.76802 1.52613C4.77206 1.52616 4.77611 1.52619 4.78016 1.52622C4.78422 1.52625 4.78828 1.52628 4.79235 1.52631C4.79642 1.52634 4.8005 1.52637 4.80458 1.5264C4.80867 1.52643 4.81276 1.52646 4.81686 1.52649C4.82096 1.52652 4.82506 1.52655 4.82917 1.52658C4.83329 1.52661 4.83741 1.52664 4.84153 1.52667C4.84566 1.5267 4.84979 1.52673 4.85393 1.52676C4.85808 1.52679 4.86222 1.52682 4.86638 1.52685C4.87053 1.52688 4.8747 1.52691 4.87887 1.52694C4.88303 1.52697 4.88721 1.527 4.89139 1.52703C4.89558 1.52706 4.89977 1.52709 4.90396 1.52712C4.90816 1.52715 4.91236 1.52718 4.91657 1.52721C4.92078 1.52724 4.925 1.52727 4.92923 1.5273C4.93345 1.52733 4.93768 1.52737 4.94192 1.5274C4.94616 1.52743 4.9504 1.52746 4.95465 1.52749C4.9589 1.52752 4.96316 1.52755 4.96743 1.52758C4.97169 1.52761 4.97596 1.52764 4.98024 1.52767C4.98452 1.52771 4.98881 1.52774 4.9931 1.52777C4.99739 1.5278 5.00169 1.52783 5.00599 1.52786C5.0103 1.52789 5.01461 1.52792 5.01893 1.52796C5.02325 1.52799 5.02757 1.52802 5.0319 1.52805C5.03624 1.52808 5.04057 1.52811 5.04492 1.52814C5.04926 1.52818 5.05361 1.52821 5.05797 1.52824C5.06233 1.52827 5.06669 1.5283 5.07107 1.52833C5.07544 1.52837 5.07981 1.5284 5.0842 1.52843C5.08858 1.52846 5.09297 1.52849 5.09737 1.52852C5.10176 1.52856 5.10617 1.52859 5.11058 1.52862C5.11499 1.52865 5.1194 1.52868 5.12382 1.52872C5.12825 1.52875 5.13268 1.52878 5.13711 1.52881C5.14154 1.52885 5.14599 1.52888 5.15043 1.52891C5.15488 1.52894 5.15933 1.52897 5.16379 1.52901C5.16825 1.52904 5.17272 1.52907 5.17719 1.5291C5.18167 1.52914 5.18614 1.52917 5.19063 1.5292C5.19511 1.52923 5.19961 1.52927 5.2041 1.5293C5.2086 1.52933 5.2131 1.52937 5.21761 1.5294C5.22212 1.52943 5.22664 1.52946 5.23116 1.5295C5.23568 1.52953 5.24021 1.52956 5.24474 1.5296C5.24928 1.52963 5.25382 1.52966 5.25836 1.52969C5.26291 1.52973 5.26746 1.52976 5.27202 1.52979C5.27658 1.52983 5.28114 1.52986 5.28571 1.52989C5.29028 1.52993 5.29486 1.52996 5.29944 1.52999C5.30402 1.53003 5.30861 1.53006 5.3132 1.53009C5.3178 1.53013 5.3224 1.53016 5.327 1.53019C5.33161 1.53023 5.33622 1.53026 5.34084 1.53029C5.34546 1.53033 5.35008 1.53036 5.35471 1.53039C5.35934 1.53043 5.36397 1.53046 5.36861 1.53049C5.37325 1.53053 5.3779 1.53056 5.38255 1.5306C5.3872 1.53063 5.39186 1.53066 5.39652 1.5307C5.40119 1.53073 5.40586 1.53076 5.41053 1.5308C5.41521 1.53083 5.41989 1.53087 5.42457 1.5309C5.42926 1.53093 5.43395 1.53097 5.43865 1.531C5.44335 1.53104 5.44805 1.53107 5.45276 1.53111C5.45747 1.53114 5.46218 1.53117 5.4669 1.53121C5.47162 1.53124 5.47635 1.53128 5.48108 1.53131C5.48581 1.53135 5.49055 1.53138 5.49529 1.53141C5.50003 1.53145 5.50478 1.53148 5.50953 1.53152C5.51428 1.53155 5.51904 1.53159 5.52381 1.53162C5.52857 1.53166 5.53334 1.53169 5.53811 1.53173C5.54289 1.53176 5.54767 1.53179 5.55245 1.53183C5.55724 1.53186 5.56203 1.5319 5.56683 1.53193C5.57162 1.53197 5.57642 1.532 5.58123 1.53204C5.58604 1.53207 5.59085 1.53211 5.59567 1.53214C5.60048 1.53218 5.60531 1.53221 5.61013 1.53225C5.61496 1.53228 5.6198 1.53232 5.62463 1.53235C5.62947 1.53239 5.63431 1.53242 5.63916 1.53246C5.64401 1.53249 5.64887 1.53253 5.65372 1.53256C5.65858 1.5326 5.66345 1.53264 5.66832 1.53267C5.67319 1.53271 5.67806 1.53274 5.68294 1.53278C5.68782 1.53281 5.6927 1.53285 5.69759 1.53288C5.70248 1.53292 5.70738 1.53295 5.71228 1.53299C5.71717 1.53303 5.72208 1.53306 5.72699 1.5331C5.7319 1.53313 5.73681 1.53317 5.74173 1.5332C5.74665 1.53324 5.75158 1.53328 5.7565 1.53331C5.76143 1.53335 5.76637 1.53338 5.77131 1.53342C5.77625 1.53345 5.78119 1.53349 5.78614 1.53353C5.79109 1.53356 5.79604 1.5336 5.801 1.53363C5.80596 1.53367 5.81092 1.53371 5.81589 1.53374C5.82085 1.53378 5.82583 1.53381 5.83081 1.53385C5.83578 1.53389 5.84077 1.53392 5.84575 1.53396C5.85074 1.534 5.85573 1.53403 5.86073 1.53407C5.86572 1.5341 5.87072 1.53414 5.87573 1.53418C5.88074 1.53421 5.88575 1.53425 5.89076 1.53429C5.89578 1.53432 5.9008 1.53436 5.90582 1.5344C5.91084 1.53443 5.91587 1.53447 5.92091 1.53451C5.92594 1.53454 5.93098 1.53458 5.93602 1.53461C5.94106 1.53465 5.94611 1.53469 5.95116 1.53472C5.95621 1.53476 5.96127 1.5348 5.96633 1.53483C5.97139 1.53487 5.97645 1.53491 5.98152 1.53495C5.98659 1.53498 5.99166 1.53502 5.99674 1.53506C6.00182 1.53509 6.0069 1.53513 6.01199 1.53517C6.01708 1.5352 6.02217 1.53524 6.02726 1.53528C6.03236 1.53531 6.03746 1.53535 6.04256 1.53539C6.04767 1.53543 6.05277 1.53546 6.05789 1.5355C6.063 1.53554 6.06812 1.53557 6.07324 1.53561C6.07836 1.53565 6.08349 1.53569 6.08861 1.53572C6.09374 1.53576 6.09888 1.5358 6.10402 1.53583C6.10915 1.53587 6.1143 1.53591 6.11944 1.53595C6.12459 1.53598 6.12974 1.53602 6.13489 1.53606C6.14005 1.5361 6.14521 1.53613 6.15037 1.53617C6.15553 1.53621 6.1607 1.53625 6.16587 1.53628C6.17104 1.53632 6.17622 1.53636 6.18139 1.5364C6.18657 1.53643 6.19176 1.53647 6.19694 1.53651C6.20213 1.53655 6.20732 1.53658 6.21251 1.53662C6.21771 1.53666 6.22291 1.5367 6.22811 1.53674C6.23331 1.53677 6.23852 1.53681 6.24373 1.53685C6.24894 1.53689 6.25416 1.53693 6.25937 1.53696C6.26459 1.537 6.26981 1.53704 6.27504 1.53708C6.28027 1.53711 6.2855 1.53715 6.29073 1.53719C6.29596 1.53723 6.3012 1.53727 6.30644 1.5373C6.31168 1.53734 6.31693 1.53738 6.32218 1.53742C6.32742 1.53746 6.33268 1.5375 6.33793 1.53753C6.34319 1.53757 6.34845 1.53761 6.35371 1.53765C6.35897 1.53769 6.36424 1.53772 6.36951 1.53776C6.37478 1.5378 6.38005 1.53784 6.38533 1.53788C6.39061 1.53792 6.39589 1.53795 6.40118 1.53799C6.40646 1.53803 6.41175 1.53807 6.41704 1.53811C6.42233 1.53815 6.42763 1.53818 6.43293 1.53822C6.43823 1.53826 6.44353 1.5383 6.44883 1.53834C6.45414 1.53838 6.45945 1.53842 6.46476 1.53845C6.47008 1.53849 6.47539 1.53853 6.48071 1.53857C6.48603 1.53861 6.49135 1.53865 6.49668 1.53869C6.50201 1.53872 6.50734 1.53876 6.51267 1.5388C6.518 1.53884 6.52334 1.53888 6.52868 1.53892C6.53402 1.53896 6.53936 1.539 6.54471 1.53903C6.55005 1.53907 6.5554 1.53911 6.56076 1.53915C6.56611 1.53919 6.57147 1.53923 6.57682 1.53927C6.58218 1.53931 6.58755 1.53935 6.59291 1.53939C6.59828 1.53942 6.60365 1.53946 6.60902 1.5395C6.61439 1.53954 6.61977 1.53958 6.62514 1.53962C6.63052 1.53966 6.6359 1.5397 6.64129 1.53974C6.64667 1.53978 6.65206 1.53981 6.65745 1.53985C6.66284 1.53989 6.66823 1.53993 6.67363 1.53997C6.67903 1.54001 6.68443 1.54005 6.68983 1.54009C6.69523 1.54013 6.70064 1.54017 6.70604 1.54021C6.71145 1.54025 6.71686 1.54029 6.72228 1.54032C6.72769 1.54036 6.73311 1.5404 6.73853 1.54044C6.74395 1.54048 6.74937 1.54052 6.7548 1.54056C6.76023 1.5406 6.76565 1.54064 6.77109 1.54068C6.77652 1.54072 6.78195 1.54076 6.78739 1.5408C6.79283 1.54084 6.79827 1.54088 6.80371 1.54092C6.80915 1.54096 6.8146 1.54099 6.82004 1.54103C6.82549 1.54107 6.83094 1.54111 6.8364 1.54115C6.84185 1.54119 6.84731 1.54123 6.85277 1.54127C6.85823 1.54131 6.86369 1.54135 6.86915 1.54139C6.87462 1.54143 6.88008 1.54147 6.88555 1.54151C6.89102 1.54155 6.89649 1.54159 6.90197 1.54163C6.90744 1.54167 6.91292 1.54171 6.9184 1.54175C6.92388 1.54179 6.92936 1.54183 6.93485 1.54187C6.94033 1.54191 6.94582 1.54195 6.95131 1.54199C6.9568 1.54203 6.96229 1.54207 6.96778 1.54211C6.97328 1.54215 6.97877 1.54219 6.98427 1.54223C6.98977 1.54227 6.99527 1.54231 7.00078 1.54235C7.00628 1.54239 7.01179 1.54243 7.0173 1.54247C7.02281 1.54251 7.02832 1.54255 7.03383 1.54259C7.03935 1.54263 7.04486 1.54267 7.05038 1.54271C7.0559 1.54275 7.06142 1.54279 7.06694 1.54283C7.07246 1.54287 7.07799 1.54291 7.08352 1.54295C7.08904 1.54299 7.09457 1.54303 7.1001 1.54307C7.10564 1.54311 7.11117 1.54315 7.1167 1.54319C7.12224 1.54323 7.12778 1.54327 7.13332 1.54331C7.13886 1.54335 7.1444 1.54339 7.14994 1.54343C7.15549 1.54347 7.16103 1.54351 7.16658 1.54355C7.17213 1.54359 7.17768 1.54363 7.18323 1.54367C7.18879 1.54371 7.19434 1.54375 7.1999 1.54379C7.20545 1.54383 7.21101 1.54387 7.21657 1.54391C7.22213 1.54395 7.22769 1.54399 7.23326 1.54404C7.23882 1.54408 7.24439 1.54412 7.24996 1.54416C7.25553 1.5442 7.2611 1.54424 7.26667 1.54428C7.27224 1.54432 7.27781 1.54436 7.28339 1.5444C7.28896 1.54444 7.29454 1.54448 7.30012 1.54452C7.3057 1.54456 7.31128 1.5446 7.31686 1.54464C7.32244 1.54468 7.32803 1.54472 7.33361 1.54476C7.3392 1.5448 7.34479 1.54484 7.35038 1.54489C7.35597 1.54493 7.36156 1.54497 7.36715 1.54501C7.37274 1.54505 7.37834 1.54509 7.38393 1.54513C7.38953 1.54517 7.39513 1.54521 7.40073 1.54525C7.40633 1.54529 7.41193 1.54533 7.41753 1.54537C7.42313 1.54541 7.42874 1.54545 7.43434 1.5455C7.43995 1.54554 7.44556 1.54558 7.45117 1.54562C7.45677 1.54566 7.46238 1.5457 7.468 1.54574C7.47361 1.54578 7.47922 1.54582 7.48483 1.54586C7.49045 1.5459 7.49606 1.54594 7.50168 1.54598C7.5073 1.54603 7.51292 1.54607 7.51854 1.54611C7.52416 1.54615 7.52978 1.54619 7.5354 1.54623C7.54103 1.54627 7.54665 1.54631 7.55228 1.54635C7.5579 1.54639 7.56353 1.54643 7.56916 1.54647C7.57478 1.54652 7.58041 1.54656 7.58604 1.5466C7.59167 1.54664 7.59731 1.54668 7.60294 1.54672C7.60857 1.54676 7.61421 1.5468 7.61984 1.54684C7.62548 1.54688 7.63111 1.54692 7.63675 1.54697C7.64239 1.54701 7.64803 1.54705 7.65367 1.54709C7.65931 1.54713 7.66495 1.54717 7.67059 1.54721C7.67623 1.54725 7.68188 1.54729 7.68752 1.54733C7.69317 1.54737 7.69881 1.54742 7.70446 1.54746C7.7101 1.5475 7.71575 1.54754 7.7214 1.54758C7.72705 1.54762 7.7327 1.54766 7.73835 1.5477C7.744 1.54774 7.74965 1.54778 7.7553 1.54783C7.76096 1.54787 7.76661 1.54791 7.77226 1.54795C7.77792 1.54799 7.78357 1.54803 7.78923 1.54807C7.79488 1.54811 7.80054 1.54815 7.8062 1.5482C7.81185 1.54824 7.81751 1.54828 7.82317 1.54832C7.82883 1.54836 7.83449 1.5484 7.84015 1.54844C7.84581 1.54848 7.85147 1.54852 7.85714 1.54857C7.8628 1.54861 7.86846 1.54865 7.87412 1.54869C7.87979 1.54873 7.88545 1.54877 7.89112 1.54881C7.89678 1.54885 7.90245 1.54889 7.90811 1.54894C7.91378 1.54898 7.91945 1.54902 7.92511 1.54906C7.93078 1.5491 7.93645 1.54914 7.94212 1.54918C7.94779 1.54922 7.95346 1.54926 7.95913 1.54931C7.9648 1.54935 7.97047 1.54939 7.97614 1.54943C7.98181 1.54947 7.98748 1.54951 7.99315 1.54955C7.99882 1.54959 8.0045 1.54964 8.01017 1.54968C8.01584 1.54972 8.02151 1.54976 8.02719 1.5498C8.03286 1.54984 8.03853 1.54988 8.04421 1.54992C8.04988 1.54997 8.05556 1.55001 8.06123 1.55005C8.06691 1.55009 8.07258 1.55013 8.07826 1.55017C8.08393 1.55021 8.08961 1.55025 8.09529 1.55029C8.10096 1.55034 8.10664 1.55038 8.11232 1.55042C8.11799 1.55046 8.12367 1.5505 8.12935 1.55054C8.13502 1.55058 8.1407 1.55062 8.14638 1.55067C8.15206 1.55071 8.15774 1.55075 8.16341 1.55079C8.16909 1.55083 8.17477 1.55087 8.18045 1.55091C8.18613 1.55095 8.1918 1.551 8.19748 1.55104C8.20316 1.55108 8.20884 1.55112 8.21452 1.55116C8.2202 1.5512 8.22588 1.55124 8.23155 1.55128C8.23723 1.55133 8.24291 1.55137 8.24859 1.55141C8.25427 1.55145 8.25995 1.55149 8.26563 1.55153C8.27131 1.55157 8.27698 1.55161 8.28266 1.55166C8.28834 1.5517 8.29402 1.55174 8.2997 1.55178C8.30538 1.55182 8.31105 1.55186 8.31673 1.5519C8.32241 1.55194 8.32809 1.55199 8.33377 1.55203C8.33944 1.55207 8.34512 1.55211 8.3508 1.55215C8.35648 1.55219 8.36215 1.55223 8.36783 1.55227C8.37351 1.55232 8.37918 1.55236 8.38486 1.5524C8.39054 1.55244 8.39621 1.55248 8.40189 1.55252C8.40756 1.55256 8.41324 1.5526 8.41891 1.55264C8.42459 1.55269 8.43027 1.55273 8.43594 1.55277C8.44161 1.55281 8.44729 1.55285 8.45296 1.55289C8.45864 1.55293 8.46431 1.55297 8.46998 1.55302C8.47566 1.55306 8.48133 1.5531 8.487 1.55314C8.49267 1.55318 8.49834 1.55322 8.50401 1.55326C8.50969 1.5533 8.51536 1.55335 8.52103 1.55339C8.5267 1.55343 8.53237 1.55347 8.53804 1.55351C8.5437 1.55355 8.54937 1.55359 8.55504 1.55363C8.56071 1.55367 8.56638 1.55372 8.57204 1.55376C8.57771 1.5538 8.58338 1.55384 8.58904 1.55388C8.59471 1.55392 8.60037 1.55396 8.60604 1.554C8.6117 1.55404 8.61736 1.55409 8.62302 1.55413C8.62869 1.55417 8.63435 1.55421 8.64001 1.55425C8.64567 1.55429 8.65133 1.55433 8.65699 1.55437C8.66265 1.55441 8.66831 1.55446 8.67397 1.5545C8.67963 1.55454 8.68528 1.55458 8.69094 1.55462C8.6966 1.55466 8.70225 1.5547 8.70791 1.55474C8.71356 1.55478 8.71922 1.55483 8.72487 1.55487C8.73052 1.55491 8.73617 1.55495 8.74182 1.55499C8.74747 1.55503 8.75313 1.55507 8.75877 1.55511C8.76442 1.55515 8.77007 1.55519 8.77572 1.55524C8.78137 1.55528 8.78701 1.55532 8.79266 1.55536C8.7983 1.5554 8.80395 1.55544 8.80959 1.55548C8.81523 1.55552 8.82087 1.55556 8.82651 1.5556C8.83215 1.55565 8.83779 1.55569 8.84343 1.55573C8.84907 1.55577 8.85471 1.55581 8.86034 1.55585C8.86598 1.55589 8.87162 1.55593 8.87725 1.55597C8.88288 1.55601 8.88852 1.55605 8.89415 1.5561C8.89978 1.55614 8.90541 1.55618 8.91104 1.55622C8.91667 1.55626 8.9223 1.5563 8.92792 1.55634C8.93355 1.55638 8.93917 1.55642 8.9448 1.55646C8.95042 1.5565 8.95604 1.55655 8.96166 1.55659C8.96729 1.55663 8.9729 1.55667 8.97852 1.55671C8.98414 1.55675 8.98976 1.55679 8.99537 1.55683C9.00099 1.55687 9.0066 1.55691 9.01222 1.55695C9.01783 1.55699 9.02344 1.55703 9.02905 1.55708C9.03466 1.55712 9.04027 1.55716 9.04587 1.5572C9.05148 1.55724 9.05709 1.55728 9.06269 1.55732C9.06829 1.55736 9.07389 1.5574 9.0795 1.55744C9.0851 1.55748 9.09069 1.55752 9.09629 1.55756C9.10189 1.5576 9.10748 1.55765 9.11308 1.55769C9.11867 1.55773 9.12426 1.55777 9.12985 1.55781C9.13545 1.55785 9.14103 1.55789 9.14662 1.55793C9.15221 1.55797 9.15779 1.55801 9.16338 1.55805C9.16896 1.55809 9.17454 1.55813 9.18012 1.55817C9.1857 1.55821 9.19128 1.55825 9.19686 1.55829C9.20244 1.55833 9.20801 1.55838 9.21358 1.55842C9.21916 1.55846 9.22473 1.5585 9.2303 1.55854C9.23587 1.55858 9.24143 1.55862 9.247 1.55866C9.25256 1.5587 9.25813 1.55874 9.26369 1.55878C9.26925 1.55882 9.27481 1.55886 9.28037 1.5589C9.28593 1.55894 9.29148 1.55898 9.29704 1.55902C9.30259 1.55906 9.30814 1.5591 9.31369 1.55914C9.31924 1.55918 9.32479 1.55922 9.33033 1.55926C9.33588 1.5593 9.34142 1.55934 9.34696 1.55938C9.35251 1.55942 9.35805 1.55946 9.36358 1.5595C9.36912 1.55954 9.37465 1.55959 9.38019 1.55963C9.38572 1.55967 9.39125 1.55971 9.39678 1.55975C9.40231 1.55979 9.40783 1.55983 9.41336 1.55987C9.41888 1.55991 9.4244 1.55995 9.42992 1.55999C9.43544 1.56003 9.44096 1.56007 9.44648 1.56011C9.45199 1.56015 9.4575 1.56019 9.46301 1.56023C9.46853 1.56027 9.47403 1.56031 9.47954 1.56035C9.48504 1.56039 9.49055 1.56043 9.49605 1.56047C9.50155 1.56051 9.50705 1.56055 9.51254 1.56059C9.51804 1.56063 9.52353 1.56067 9.52903 1.56071C9.53452 1.56075 9.54001 1.56079 9.54549 1.56083C9.55098 1.56087 9.55646 1.56091 9.56194 1.56095C9.56743 1.56099 9.5729 1.56102 9.57838 1.56106C9.58386 1.5611 9.58933 1.56114 9.5948 1.56118C9.60027 1.56122 9.60574 1.56126 9.61121 1.5613C9.61667 1.56134 9.62214 1.56138 9.6276 1.56142C9.63306 1.56146 9.63852 1.5615 9.64397 1.56154C9.64943 1.56158 9.65488 1.56162 9.66033 1.56166C9.66578 1.5617 9.67123 1.56174 9.67667 1.56178C9.68211 1.56182 9.68756 1.56186 9.693 1.5619C9.69843 1.56194 9.70387 1.56198 9.7093 1.56202C9.71474 1.56205 9.72017 1.56209 9.7256 1.56213C9.73102 1.56217 9.73645 1.56221 9.74187 1.56225C9.74729 1.56229 9.75271 1.56233 9.75813 1.56237C9.76354 1.56241 9.76896 1.56245 9.77437 1.56249C9.77978 1.56253 9.78519 1.56257 9.79059 1.56261C9.796 1.56264 9.8014 1.56268 9.8068 1.56272C9.81219 1.56276 9.81759 1.5628 9.82298 1.56284C9.82837 1.56288 9.83376 1.56292 9.83915 1.56296C9.84454 1.563 9.84992 1.56304 9.8553 1.56308C9.86068 1.56311 9.86606 1.56315 9.87143 1.56319C9.87681 1.56323 9.88218 1.56327 9.88754 1.56331C9.89291 1.56335 9.89828 1.56339 9.90364 1.56343C9.909 1.56347 9.91436 1.5635 9.91971 1.56354C9.92507 1.56358 9.93042 1.56362 9.93577 1.56366C9.94112 1.5637 9.94646 1.56374 9.9518 1.56378C9.95715 1.56382 9.96248 1.56385 9.96782 1.56389C9.97315 1.56393 9.97849 1.56397 9.98382 1.56401C9.98914 1.56405 9.99447 1.56409 9.99979 1.56412C10.0051 1.56416 10.0104 1.5642 10.0157 1.56424C10.0211 1.56428 10.0264 1.56432 10.0317 1.56436C10.037 1.56439 10.0423 1.56443 10.0476 1.56447C10.0529 1.56451 10.0582 1.56455 10.0635 1.56459C10.0688 1.56463 10.0741 1.56466 10.0794 1.5647C10.0846 1.56474 10.0899 1.56478 10.0952 1.56482C10.1005 1.56486 10.1058 1.56489 10.111 1.56493C10.1163 1.56497 10.1216 1.56501 10.1268 1.56505C10.1321 1.56509 10.1374 1.56512 10.1426 1.56516C10.1479 1.5652 10.1531 1.56524 10.1584 1.56528C10.1636 1.56531 10.1689 1.56535 10.1741 1.56539C10.1794 1.56543 10.1846 1.56547 10.1899 1.5655C10.1951 1.56554 10.2003 1.56558 10.2056 1.56562C10.2108 1.56566 10.216 1.56569 10.2212 1.56573C10.2265 1.56577 10.2317 1.56581 10.2369 1.56585C10.2421 1.56588 10.2473 1.56592 10.2525 1.56596C10.2577 1.566 10.2629 1.56604 10.2681 1.56607C10.2733 1.56611 10.2785 1.56615 10.2837 1.56619C10.2889 1.56622 10.2941 1.56626 10.2992 1.5663C10.3044 1.56634 10.3096 1.56637 10.3148 1.56641C10.32 1.56645 10.3251 1.56649 10.3303 1.56652C10.3355 1.56656 10.3406 1.5666 10.3458 1.56664C10.3509 1.56667 10.3561 1.56671 10.3612 1.56675C10.3664 1.56679 10.3715 1.56682 10.3767 1.56686C10.3818 1.5669 10.3869 1.56694 10.3921 1.56697C10.3972 1.56701 10.4023 1.56705 10.4075 1.56709C10.4126 1.56712 10.4177 1.56716 10.4228 1.5672C10.4279 1.56723 10.433 1.56727 10.4382 1.56731C10.4433 1.56735 10.4484 1.56738 10.4535 1.56742C10.4586 1.56746 10.4637 1.56749 10.4687 1.56753C10.4738 1.56757 10.4789 1.5676 10.484 1.56764C10.4891 1.56768 10.4942 1.56771 10.4992 1.56775C10.5043 1.56779 10.5094 1.56783 10.5144 1.56786C10.5195 1.5679 10.5246 1.56794 10.5296 1.56797C10.5347 1.56801 10.5397 1.56805 10.5448 1.56808C10.5498 1.56812 10.5548 1.56816 10.5599 1.56819C10.5649 1.56823 10.57 1.56827 10.575 1.5683C10.58 1.56834 10.585 1.56837 10.59 1.56841C10.5951 1.56845 10.6001 1.56848 10.6051 1.56852C10.6101 1.56856 10.6151 1.56859 10.6201 1.56863C10.6251 1.56867 10.6301 1.5687 10.6351 1.56874C10.6401 1.56877 10.6451 1.56881 10.65 1.56885C10.655 1.56888 10.66 1.56892 10.665 1.56896C10.6699 1.56899 10.6749 1.56903 10.6799 1.56906C10.6848 1.5691 10.6898 1.56914 10.6947 1.56917C10.6997 1.56921 10.7046 1.56924 10.7096 1.56928C10.7145 1.56931 10.7195 1.56935 10.7244 1.56939C10.7293 1.56942 10.7342 1.56946 10.7392 1.56949C10.7441 1.56953 10.749 1.56957 10.7539 1.5696C10.7588 1.56964 10.7637 1.56967 10.7686 1.56971C10.7735 1.56974 10.7784 1.56978 10.7833 1.56981C10.7882 1.56985 10.7931 1.56989 10.798 1.56992C10.8029 1.56996 10.8078 1.56999 10.8126 1.57003C10.8175 1.57006 10.8224 1.5701 10.8272 1.57013C10.8321 1.57017 10.837 1.5702 10.8418 1.57024C10.8467 1.57027 10.8515 1.57031 10.8563 1.57034C10.8612 1.57038 10.866 1.57042 10.8709 1.57045C10.8757 1.57049 10.8805 1.57052 10.8853 1.57056C10.8902 1.57059 10.895 1.57063 10.8998 1.57066C10.9046 1.5707 10.9094 1.57073 10.9142 1.57076C10.919 1.5708 10.9238 1.57083 10.9286 1.57087C10.9334 1.5709 10.9382 1.57094 10.9429 1.57097C10.9477 1.57101 10.9525 1.57104 10.9573 1.57108C10.962 1.57111 10.9668 1.57115 10.9715 1.57118C10.9763 1.57122 10.981 1.57125 10.9858 1.57128C10.9905 1.57132 10.9953 1.57135 11 1.57139C11.0047 1.57142 11.0095 1.57146 11.0142 1.57149C11.0189 1.57153 11.0236 1.57156 11.0284 1.57159C11.0331 1.57163 11.0378 1.57166 11.0425 1.5717C11.0472 1.57173 11.0519 1.57176 11.0566 1.5718C11.0612 1.57183 11.0659 1.57187 11.0706 1.5719C11.0753 1.57193 11.08 1.57197 11.0846 1.572C11.0893 1.57204 11.094 1.57207 11.0986 1.5721C11.1033 1.57214 11.1079 1.57217 11.1126 1.57221C11.1172 1.57224 11.1219 1.57227 11.1265 1.57231C11.1311 1.57234 11.1357 1.57237 11.1404 1.57241C11.145 1.57244 11.1496 1.57247 11.1542 1.57251C11.1588 1.57254 11.1634 1.57257 11.168 1.57261C11.1726 1.57264 11.1772 1.57267 11.1818 1.57271C11.1864 1.57274 11.191 1.57277 11.1955 1.57281C11.2001 1.57284 11.2047 1.57287 11.2092 1.57291C11.2138 1.57294 11.2184 1.57297 11.2229 1.57301C11.2275 1.57304 11.232 1.57307 11.2365 1.57311C11.2411 1.57314 11.2456 1.57317 11.2501 1.5732C11.2547 1.57324 11.2592 1.57327 11.2637 1.5733C11.2682 1.57334 11.2727 1.57337 11.2772 1.5734C11.2817 1.57343 11.2862 1.57347 11.2907 1.5735C11.2952 1.57353 11.2997 1.57356 11.3042 1.5736C11.3086 1.57363 11.3131 1.57366 11.3176 1.57369C11.322 1.57373 11.3265 1.57376 11.3309 1.57379C11.3354 1.57382 11.3398 1.57386 11.3443 1.57389C11.3487 1.57392 11.3531 1.57395 11.3576 1.57398C11.362 1.57402 11.3664 1.57405 11.3708 1.57408C11.3752 1.57411 11.3797 1.57414 11.3841 1.57418C11.3885 1.57421 11.3929 1.57424 11.3972 1.57427C11.4016 1.5743 11.406 1.57434 11.4104 1.57437C11.4148 1.5744 11.4191 1.57443 11.4235 1.57446C11.4279 1.57449 11.4322 1.57453 11.4366 1.57456C11.4409 1.57459 11.4452 1.57462 11.4496 1.57465C11.4539 1.57468 11.4583 1.57472 11.4626 1.57475C11.4669 1.57478 11.4712 1.57481 11.4755 1.57484C11.4798 1.57487 11.4841 1.5749 11.4884 1.57493C11.4927 1.57497 11.497 1.575 11.5013 1.57503C11.5056 1.57506 11.5099 1.57509 11.5141 1.57512C11.5184 1.57515 11.5227 1.57518 11.5269 1.57521C11.5312 1.57525 11.5354 1.57528 11.5397 1.57531C11.5439 1.57534 11.5481 1.57537 11.5524 1.5754C11.5566 1.57543 11.5608 1.57546 11.565 1.57549L11.5723 0.575517C11.5681 0.575487 11.5639 0.575456 11.5596 0.575425C11.5554 0.575395 11.5512 0.575364 11.5469 0.575333C11.5427 0.575302 11.5384 0.575272 11.5342 0.575241C11.5299 0.57521 11.5257 0.575179 11.5214 0.575148C11.5171 0.575117 11.5128 0.575086 11.5086 0.575055C11.5043 0.575023 11.5 0.574992 11.4957 0.574961C11.4914 0.57493 11.4871 0.574899 11.4828 0.574867C11.4785 0.574836 11.4742 0.574805 11.4698 0.574773C11.4655 0.574742 11.4612 0.574711 11.4568 0.574679C11.4525 0.574648 11.4482 0.574616 11.4438 0.574584C11.4395 0.574553 11.4351 0.574521 11.4308 0.57449C11.4264 0.574458 11.422 0.574426 11.4176 0.574394C11.4133 0.574363 11.4089 0.574331 11.4045 0.574299C11.4001 0.574267 11.3957 0.574235 11.3913 0.574203C11.3869 0.574171 11.3825 0.574139 11.3781 0.574107C11.3737 0.574075 11.3693 0.574043 11.3648 0.574011C11.3604 0.573979 11.356 0.573947 11.3515 0.573914C11.3471 0.573882 11.3427 0.57385 11.3382 0.573817C11.3337 0.573785 11.3293 0.573753 11.3248 0.57372C11.3204 0.573688 11.3159 0.573655 11.3114 0.573623C11.3069 0.57359 11.3025 0.573558 11.298 0.573525C11.2935 0.573493 11.289 0.57346 11.2845 0.573427C11.28 0.573395 11.2755 0.573362 11.271 0.573329C11.2664 0.573296 11.2619 0.573264 11.2574 0.573231C11.2529 0.573198 11.2483 0.573165 11.2438 0.573132C11.2393 0.573099 11.2347 0.573066 11.2302 0.573033C11.2256 0.573 11.2211 0.572967 11.2165 0.572934C11.2119 0.572901 11.2074 0.572867 11.2028 0.572834C11.1982 0.572801 11.1936 0.572768 11.1891 0.572734C11.1845 0.572701 11.1799 0.572668 11.1753 0.572634C11.1707 0.572601 11.1661 0.572568 11.1615 0.572534C11.1569 0.572501 11.1522 0.572467 11.1476 0.572434C11.143 0.5724 11.1384 0.572366 11.1337 0.572333C11.1291 0.572299 11.1245 0.572265 11.1198 0.572232C11.1152 0.572198 11.1105 0.572164 11.1059 0.57213C11.1012 0.572097 11.0966 0.572063 11.0919 0.572029C11.0872 0.571995 11.0826 0.571961 11.0779 0.571927C11.0732 0.571893 11.0685 0.571859 11.0638 0.571825C11.0591 0.571791 11.0544 0.571757 11.0497 0.571723C11.045 0.571689 11.0403 0.571654 11.0356 0.57162C11.0309 0.571586 11.0262 0.571552 11.0215 0.571517C11.0167 0.571483 11.012 0.571449 11.0073 0.571414C11.0025 0.57138 10.9978 0.571346 10.9931 0.571311C10.9883 0.571277 10.9836 0.571242 10.9788 0.571208C10.974 0.571173 10.9693 0.571138 10.9645 0.571104C10.9597 0.571069 10.955 0.571035 10.9502 0.571C10.9454 0.570965 10.9406 0.57093 10.9358 0.570896C10.9311 0.570861 10.9263 0.570826 10.9215 0.570791C10.9167 0.570756 10.9119 0.570721 10.907 0.570687C10.9022 0.570652 10.8974 0.570617 10.8926 0.570582C10.8878 0.570547 10.883 0.570512 10.8781 0.570477C10.8733 0.570441 10.8685 0.570406 10.8636 0.570371C10.8588 0.570336 10.8539 0.570301 10.8491 0.570266C10.8442 0.57023 10.8394 0.570195 10.8345 0.57016C10.8296 0.570124 10.8248 0.570089 10.8199 0.570054C10.815 0.570018 10.8101 0.569983 10.8053 0.569947C10.8004 0.569912 10.7955 0.569877 10.7906 0.569841C10.7857 0.569805 10.7808 0.56977 10.7759 0.569734C10.771 0.569699 10.7661 0.569663 10.7612 0.569627C10.7563 0.569592 10.7514 0.569556 10.7464 0.56952C10.7415 0.569484 10.7366 0.569449 10.7316 0.569413C10.7267 0.569377 10.7218 0.569341 10.7168 0.569305C10.7119 0.569269 10.7069 0.569234 10.702 0.569198C10.697 0.569162 10.6921 0.569126 10.6871 0.56909C10.6822 0.569054 10.6772 0.569017 10.6722 0.568981C10.6673 0.568945 10.6623 0.568909 10.6573 0.568873C10.6523 0.568837 10.6473 0.568801 10.6423 0.568764C10.6374 0.568728 10.6324 0.568692 10.6274 0.568656C10.6224 0.568619 10.6174 0.568583 10.6123 0.568547C10.6073 0.56851 10.6023 0.568474 10.5973 0.568437C10.5923 0.568401 10.5873 0.568364 10.5822 0.568328C10.5772 0.568291 10.5722 0.568255 10.5671 0.568218C10.5621 0.568182 10.5571 0.568145 10.552 0.568108C10.547 0.568072 10.5419 0.568035 10.5369 0.567998C10.5318 0.567962 10.5268 0.567925 10.5217 0.567888C10.5166 0.567851 10.5116 0.567815 10.5065 0.567778C10.5014 0.567741 10.4963 0.567704 10.4913 0.567667C10.4862 0.56763 10.4811 0.567593 10.476 0.567556C10.4709 0.56752 10.4658 0.567483 10.4607 0.567446C10.4556 0.567408 10.4505 0.567371 10.4454 0.567334C10.4403 0.567297 10.4352 0.56726 10.4301 0.567223C10.425 0.567186 10.4198 0.567149 10.4147 0.567111C10.4096 0.567074 10.4045 0.567037 10.3993 0.567C10.3942 0.566962 10.3891 0.566925 10.3839 0.566888C10.3788 0.566851 10.3736 0.566813 10.3685 0.566776C10.3633 0.566738 10.3582 0.566701 10.353 0.566664C10.3479 0.566626 10.3427 0.566589 10.3376 0.566551C10.3324 0.566514 10.3272 0.566476 10.322 0.566438C10.3169 0.566401 10.3117 0.566363 10.3065 0.566326C10.3013 0.566288 10.2961 0.56625 10.291 0.566213C10.2858 0.566175 10.2806 0.566137 10.2754 0.5661C10.2702 0.566062 10.265 0.566024 10.2598 0.565986C10.2546 0.565948 10.2494 0.565911 10.2441 0.565873C10.2389 0.565835 10.2337 0.565797 10.2285 0.565759C10.2233 0.565721 10.218 0.565683 10.2128 0.565645C10.2076 0.565607 10.2024 0.565569 10.1971 0.565531C10.1919 0.565493 10.1866 0.565455 10.1814 0.565417C10.1762 0.565379 10.1709 0.565341 10.1657 0.565303C10.1604 0.565265 10.1552 0.565227 10.1499 0.565188C10.1446 0.56515 10.1394 0.565112 10.1341 0.565074C10.1288 0.565035 10.1236 0.564997 10.1183 0.564959C10.113 0.564921 10.1078 0.564882 10.1025 0.564844C10.0972 0.564806 10.0919 0.564767 10.0866 0.564729C10.0813 0.564691 10.076 0.564652 10.0708 0.564614C10.0655 0.564575 10.0602 0.564537 10.0549 0.564498C10.0496 0.56446 10.0443 0.564421 10.0389 0.564383C10.0336 0.564344 10.0283 0.564306 10.023 0.564267C10.0177 0.564228 10.0124 0.56419 10.0071 0.564151C10.0017 0.564112 9.99641 0.564074 9.99108 0.564035C9.98575 0.563996 9.98042 0.563958 9.97508 0.563919C9.96975 0.56388 9.96441 0.563841 9.95906 0.563803C9.95372 0.563764 9.94838 0.563725 9.94303 0.563686C9.93768 0.563647 9.93233 0.563608 9.92697 0.56357C9.92162 0.563531 9.91626 0.563492 9.9109 0.563453C9.90554 0.563414 9.90017 0.563375 9.89481 0.563336C9.88944 0.563297 9.88407 0.563258 9.87869 0.563219C9.87332 0.56318 9.86794 0.563141 9.86256 0.563102C9.85718 0.563063 9.8518 0.563024 9.84641 0.562985C9.84103 0.562945 9.83564 0.562906 9.83024 0.562867C9.82485 0.562828 9.81946 0.562789 9.81406 0.56275C9.80866 0.56271 9.80326 0.562671 9.79785 0.562632C9.79245 0.562593 9.78704 0.562553 9.78163 0.562514C9.77622 0.562475 9.77081 0.562436 9.76539 0.562396C9.75997 0.562357 9.75455 0.562318 9.74913 0.562278C9.74371 0.562239 9.73829 0.562199 9.73286 0.56216C9.72743 0.562121 9.722 0.562081 9.71657 0.562042C9.71113 0.562002 9.7057 0.561963 9.70026 0.561923C9.69482 0.561884 9.68938 0.561844 9.68393 0.561805C9.67849 0.561765 9.67304 0.561726 9.66759 0.561686C9.66214 0.561646 9.65669 0.561607 9.65123 0.561567C9.64578 0.561528 9.64032 0.561488 9.63486 0.561448C9.6294 0.561409 9.62393 0.561369 9.61847 0.561329C9.613 0.56129 9.60753 0.56125 9.60206 0.56121C9.59659 0.56117 9.59112 0.561131 9.58564 0.561091C9.58017 0.561051 9.57469 0.561011 9.56921 0.560972C9.56372 0.560932 9.55824 0.560892 9.55275 0.560852C9.54727 0.560812 9.54178 0.560772 9.53629 0.560733C9.5308 0.560693 9.5253 0.560653 9.51981 0.560613C9.51431 0.560573 9.50881 0.560533 9.50331 0.560493C9.49781 0.560453 9.49231 0.560413 9.4868 0.560373C9.48129 0.560333 9.47579 0.560293 9.47028 0.560253C9.46477 0.560213 9.45925 0.560173 9.45374 0.560133C9.44822 0.560093 9.44271 0.560053 9.43719 0.560013C9.43167 0.559973 9.42614 0.559933 9.42062 0.559893C9.4151 0.559852 9.40957 0.559812 9.40404 0.559772C9.39851 0.559732 9.39298 0.559692 9.38745 0.559652C9.38192 0.559612 9.37638 0.559571 9.37084 0.559531C9.36531 0.559491 9.35977 0.559451 9.35423 0.55941C9.34868 0.55937 9.34314 0.55933 9.3376 0.55929C9.33205 0.559249 9.3265 0.559209 9.32095 0.559169C9.3154 0.559129 9.30985 0.559088 9.3043 0.559048C9.29874 0.559008 9.29319 0.558967 9.28763 0.558927C9.28207 0.558886 9.27651 0.558846 9.27095 0.558806C9.26539 0.558765 9.25983 0.558725 9.25426 0.558685C9.24869 0.558644 9.24313 0.558604 9.23756 0.558563C9.23199 0.558523 9.22642 0.558482 9.22085 0.558442C9.21527 0.558401 9.2097 0.558361 9.20412 0.55832C9.19854 0.55828 9.19297 0.558239 9.18739 0.558199C9.18181 0.558158 9.17622 0.558118 9.17064 0.558077C9.16506 0.558037 9.15947 0.557996 9.15388 0.557956C9.1483 0.557915 9.14271 0.557874 9.13712 0.557834C9.13153 0.557793 9.12593 0.557753 9.12034 0.557712C9.11475 0.557671 9.10915 0.557631 9.10355 0.55759C9.09796 0.557549 9.09236 0.557509 9.08676 0.557468C9.08116 0.557428 9.07555 0.557387 9.06995 0.557346C9.06435 0.557305 9.05874 0.557265 9.05313 0.557224C9.04753 0.557183 9.04192 0.557143 9.03631 0.557102C9.0307 0.557061 9.02509 0.55702 9.01948 0.55698C9.01386 0.556939 9.00825 0.556898 9.00264 0.556857C8.99702 0.556817 8.9914 0.556776 8.98578 0.556735C8.98017 0.556694 8.97455 0.556653 8.96893 0.556613C8.9633 0.556572 8.95768 0.556531 8.95206 0.55649C8.94643 0.556449 8.94081 0.556408 8.93518 0.556367C8.92956 0.556327 8.92393 0.556286 8.9183 0.556245C8.91267 0.556204 8.90704 0.556163 8.90141 0.556122C8.89578 0.556081 8.89015 0.55604 8.88451 0.556C8.87888 0.555959 8.87324 0.555918 8.86761 0.555877C8.86197 0.555836 8.85633 0.555795 8.85069 0.555754C8.84506 0.555713 8.83942 0.555672 8.83378 0.555631C8.82813 0.55559 8.82249 0.555549 8.81685 0.555508C8.81121 0.555467 8.80556 0.555426 8.79992 0.555385C8.79427 0.555344 8.78863 0.555303 8.78298 0.555262C8.77733 0.555221 8.77168 0.55518 8.76604 0.555139C8.76039 0.555098 8.75474 0.555057 8.74908 0.555016C8.74343 0.554975 8.73778 0.554934 8.73213 0.554893C8.72648 0.554852 8.72082 0.554811 8.71517 0.55477C8.70951 0.554729 8.70386 0.554688 8.6982 0.554647C8.69254 0.554606 8.68689 0.554564 8.68123 0.554523C8.67557 0.554482 8.66991 0.554441 8.66425 0.5544C8.65859 0.554359 8.65293 0.554318 8.64727 0.554277C8.64161 0.554236 8.63595 0.554195 8.63029 0.554153C8.62462 0.554112 8.61896 0.554071 8.6133 0.55403C8.60763 0.553989 8.60197 0.553948 8.5963 0.553907C8.59064 0.553866 8.58497 0.553824 8.5793 0.553783C8.57364 0.553742 8.56797 0.553701 8.5623 0.55366C8.55663 0.553619 8.55097 0.553577 8.5453 0.553536C8.53963 0.553495 8.53396 0.553454 8.52829 0.553413C8.52262 0.553372 8.51695 0.55333 8.51128 0.553289C8.5056 0.553248 8.49993 0.553207 8.49426 0.553166C8.48859 0.553124 8.48292 0.553083 8.47724 0.553042C8.47157 0.553001 8.4659 0.55296 8.46022 0.552918C8.45455 0.552877 8.44888 0.552836 8.4432 0.552795C8.43753 0.552754 8.43185 0.552712 8.42618 0.552671C8.4205 0.55263 8.41483 0.552589 8.40915 0.552548C8.40347 0.552506 8.3978 0.552465 8.39212 0.552424C8.38644 0.552383 8.38077 0.552342 8.37509 0.5523C8.36941 0.552259 8.36374 0.552218 8.35806 0.552177C8.35238 0.552135 8.3467 0.552094 8.34103 0.552053C8.33535 0.552012 8.32967 0.55197 8.32399 0.551929C8.31831 0.551888 8.31264 0.551847 8.30696 0.551806C8.30128 0.551764 8.2956 0.551723 8.28992 0.551682C8.28424 0.551641 8.27857 0.551599 8.27289 0.551558C8.26721 0.551517 8.26153 0.551476 8.25585 0.551434C8.25017 0.551393 8.24449 0.551352 8.23882 0.551311C8.23314 0.551269 8.22746 0.551228 8.22178 0.551187C8.2161 0.551146 8.21042 0.551105 8.20474 0.551063C8.19907 0.551022 8.19339 0.550981 8.18771 0.55094C8.18203 0.550898 8.17635 0.550857 8.17067 0.550816C8.165 0.550775 8.15932 0.550733 8.15364 0.550692C8.14796 0.550651 8.14229 0.55061 8.13661 0.550568C8.13093 0.550527 8.12525 0.550486 8.11958 0.550445C8.1139 0.550404 8.10822 0.550362 8.10255 0.550321C8.09687 0.55028 8.0912 0.550239 8.08552 0.550198C8.07984 0.550156 8.07417 0.550115 8.06849 0.550074C8.06282 0.550033 8.05714 0.549991 8.05147 0.54995C8.0458 0.549909 8.04012 0.549868 8.03445 0.549827C8.02878 0.549785 8.0231 0.549744 8.01743 0.549703C8.01176 0.549662 8.00608 0.549621 8.00041 0.549579C7.99474 0.549538 7.98907 0.549497 7.9834 0.549456C7.97773 0.549415 7.97206 0.549374 7.96639 0.549332C7.96072 0.549291 7.95505 0.54925 7.94938 0.549209C7.94371 0.549168 7.93804 0.549127 7.93238 0.549085C7.92671 0.549044 7.92104 0.549003 7.91538 0.548962C7.90971 0.548921 7.90404 0.54888 7.89838 0.548839C7.89271 0.548797 7.88705 0.548756 7.88139 0.548715C7.87572 0.548674 7.87006 0.548633 7.8644 0.548592C7.85874 0.548551 7.85307 0.54851 7.84741 0.548468C7.84175 0.548427 7.83609 0.548386 7.83043 0.548345C7.82477 0.548304 7.81912 0.548263 7.81346 0.548222C7.8078 0.548181 7.80214 0.54814 7.79649 0.548099C7.79083 0.548058 7.78518 0.548016 7.77952 0.547975C7.77387 0.547934 7.76822 0.547893 7.76256 0.547852C7.75691 0.547811 7.75126 0.54777 7.74561 0.547729C7.73996 0.547688 7.73431 0.547647 7.72866 0.547606C7.72301 0.547565 7.71737 0.547524 7.71172 0.547483C7.70607 0.547442 7.70043 0.547401 7.69478 0.54736C7.68914 0.547319 7.6835 0.547278 7.67785 0.547237C7.67221 0.547196 7.66657 0.547155 7.66093 0.547114C7.65529 0.547073 7.64965 0.547032 7.64401 0.546991C7.63838 0.54695 7.63274 0.54691 7.6271 0.546869C7.62147 0.546828 7.61583 0.546787 7.6102 0.546746C7.60457 0.546705 7.59894 0.546664 7.5933 0.546623C7.58767 0.546582 7.58205 0.546541 7.57642 0.546501C7.57079 0.54646 7.56516 0.546419 7.55954 0.546378C7.55391 0.546337 7.54829 0.546296 7.54266 0.546255C7.53704 0.546215 7.53142 0.546174 7.5258 0.546133C7.52018 0.546092 7.51456 0.546051 7.50894 0.546011C7.50333 0.54597 7.49771 0.545929 7.4921 0.545888C7.48648 0.545847 7.48087 0.545807 7.47526 0.545766C7.46965 0.545725 7.46403 0.545684 7.45843 0.545644C7.45282 0.545603 7.44721 0.545562 7.44161 0.545522C7.436 0.545481 7.43039 0.54544 7.42479 0.545399C7.41919 0.545359 7.41359 0.545318 7.40799 0.545277C7.40239 0.545237 7.39679 0.545196 7.3912 0.545156C7.3856 0.545115 7.38001 0.545074 7.37441 0.545034C7.36882 0.544993 7.36323 0.544952 7.35764 0.544912C7.35205 0.544871 7.34646 0.544831 7.34088 0.54479C7.33529 0.54475 7.32971 0.544709 7.32412 0.544668C7.31854 0.544628 7.31296 0.544587 7.30738 0.544547C7.3018 0.544506 7.29622 0.544466 7.29065 0.544425C7.28507 0.544385 7.2795 0.544344 7.27393 0.544304C7.26836 0.544264 7.26279 0.544223 7.25722 0.544183C7.25165 0.544142 7.24609 0.544102 7.24052 0.544061C7.23496 0.544021 7.22939 0.543981 7.22383 0.54394C7.21827 0.5439 7.21271 0.543859 7.20716 0.543819C7.2016 0.543779 7.19605 0.543738 7.1905 0.543698C7.18494 0.543658 7.17939 0.543617 7.17384 0.543577C7.1683 0.543537 7.16275 0.543497 7.15721 0.543456C7.15166 0.543416 7.14612 0.543376 7.14058 0.543336C7.13504 0.543295 7.1295 0.543255 7.12397 0.543215C7.11843 0.543175 7.1129 0.543135 7.10736 0.543094C7.10183 0.543054 7.0963 0.543014 7.09078 0.542974C7.08525 0.542934 7.07972 0.542894 7.0742 0.542854C7.06868 0.542814 7.06316 0.542773 7.05764 0.542733C7.05212 0.542693 7.04661 0.542653 7.04109 0.542613C7.03558 0.542573 7.03007 0.542533 7.02456 0.542493C7.01905 0.542453 7.01355 0.542413 7.00804 0.542373C7.00254 0.542333 6.99703 0.542293 6.99154 0.542253C6.98604 0.542213 6.98054 0.542173 6.97504 0.542134C6.96955 0.542094 6.96406 0.542054 6.95857 0.542014C6.95308 0.541974 6.94759 0.541934 6.94211 0.541894C6.93662 0.541855 6.93114 0.541815 6.92566 0.541775C6.92018 0.541735 6.9147 0.541695 6.90923 0.541656C6.90375 0.541616 6.89828 0.541576 6.89281 0.541536C6.88734 0.541497 6.88188 0.541457 6.87641 0.541417C6.87095 0.541378 6.86549 0.541338 6.86003 0.541298C6.85457 0.541259 6.84911 0.541219 6.84366 0.541179C6.83821 0.54114 6.83275 0.5411 6.82731 0.541061C6.82186 0.541021 6.81641 0.540982 6.81097 0.540942C6.80553 0.540903 6.80009 0.540863 6.79465 0.540824C6.78921 0.540784 6.78378 0.540745 6.77835 0.540705C6.77292 0.540666 6.76749 0.540626 6.76206 0.540587C6.75664 0.540548 6.75121 0.540508 6.74579 0.540469C6.74037 0.540429 6.73495 0.54039 6.72954 0.540351C6.72413 0.540311 6.71872 0.540272 6.71331 0.540233C6.7079 0.540194 6.70249 0.540154 6.69709 0.540115C6.69169 0.540076 6.68629 0.540037 6.68089 0.539998C6.67549 0.539958 6.6701 0.539919 6.66471 0.53988C6.65932 0.539841 6.65393 0.539802 6.64855 0.539763C6.64316 0.539724 6.63778 0.539684 6.63241 0.539645C6.62703 0.539606 6.62165 0.539567 6.61628 0.539528C6.61091 0.539489 6.60554 0.53945 6.60017 0.539411C6.59481 0.539372 6.58945 0.539333 6.58409 0.539295C6.57873 0.539256 6.57337 0.539217 6.56802 0.539178C6.56266 0.539139 6.55732 0.5391 6.55197 0.539061C6.54662 0.539022 6.54128 0.538984 6.53594 0.538945C6.5306 0.538906 6.52526 0.538867 6.51993 0.538829C6.5146 0.53879 6.50927 0.538751 6.50394 0.538713C6.49862 0.538674 6.49329 0.538635 6.48797 0.538597C6.48265 0.538558 6.47734 0.538519 6.47202 0.538481C6.46671 0.538442 6.4614 0.538404 6.4561 0.538365C6.45079 0.538327 6.44549 0.538288 6.44019 0.53825C6.43489 0.538211 6.42959 0.538173 6.4243 0.538134C6.41901 0.538096 6.41372 0.538057 6.40844 0.538019C6.40315 0.537981 6.39787 0.537942 6.39259 0.537904C6.38732 0.537866 6.38204 0.537827 6.37677 0.537789C6.3715 0.537751 6.36623 0.537713 6.36097 0.537674C6.35571 0.537636 6.35045 0.537598 6.34519 0.53756C6.33994 0.537522 6.33468 0.537483 6.32944 0.537445C6.32419 0.537407 6.31894 0.537369 6.3137 0.537331C6.30846 0.537293 6.30322 0.537255 6.29799 0.537217C6.29276 0.537179 6.28753 0.537141 6.2823 0.537103C6.27708 0.537065 6.27185 0.537027 6.26664 0.536989C6.26142 0.536951 6.2562 0.536914 6.25099 0.536876C6.24578 0.536838 6.24058 0.5368 6.23537 0.536762C6.23017 0.536725 6.22497 0.536687 6.21978 0.536649C6.21458 0.536611 6.20939 0.536574 6.2042 0.536536C6.19902 0.536498 6.19383 0.536461 6.18866 0.536423C6.18348 0.536385 6.1783 0.536348 6.17313 0.53631C6.16796 0.536273 6.16279 0.536235 6.15763 0.536198C6.15247 0.53616 6.14731 0.536123 6.14216 0.536085C6.137 0.536048 6.13185 0.536011 6.1267 0.535973C6.12156 0.535936 6.11642 0.535898 6.11128 0.535861C6.10614 0.535824 6.10101 0.535787 6.09588 0.535749C6.09075 0.535712 6.08562 0.535675 6.0805 0.535638C6.07538 0.5356 6.07026 0.535563 6.06515 0.535526C6.06004 0.535489 6.05493 0.535452 6.04982 0.535415C6.04472 0.535378 6.03962 0.535341 6.03452 0.535304C6.02943 0.535267 6.02434 0.53523 6.01925 0.535193C6.01416 0.535156 6.00908 0.535119 6.004 0.535082C5.99893 0.535045 5.99385 0.535008 5.98878 0.534972C5.98371 0.534935 5.97865 0.534898 5.97359 0.534861C5.96853 0.534825 5.96347 0.534788 5.95842 0.534751C5.95337 0.534714 5.94832 0.534678 5.94328 0.534641C5.93824 0.534605 5.9332 0.534568 5.92817 0.534531C5.92313 0.534495 5.9181 0.534458 5.91308 0.534422C5.90806 0.534385 5.90304 0.534349 5.89802 0.534313C5.89301 0.534276 5.888 0.53424 5.88299 0.534203C5.87799 0.534167 5.87298 0.534131 5.86799 0.534094C5.86299 0.534058 5.858 0.534022 5.85301 0.533986C5.84803 0.53395 5.84304 0.533913 5.83807 0.533877C5.83309 0.533841 5.82812 0.533805 5.82315 0.533769C5.81818 0.533733 5.81322 0.533697 5.80826 0.533661C5.8033 0.533625 5.79835 0.533589 5.7934 0.533553C5.78845 0.533517 5.78351 0.533481 5.77857 0.533445C5.77363 0.533409 5.76869 0.533373 5.76377 0.533338C5.75884 0.533302 5.75391 0.533266 5.74899 0.53323C5.74407 0.533195 5.73916 0.533159 5.73425 0.533123C5.72934 0.533088 5.72444 0.533052 5.71954 0.533016C5.71464 0.532981 5.70974 0.532945 5.70485 0.53291C5.69996 0.532874 5.69508 0.532839 5.6902 0.532803C5.68532 0.532768 5.68045 0.532733 5.67558 0.532697C5.67071 0.532662 5.66584 0.532627 5.66099 0.532591C5.65613 0.532556 5.65127 0.532521 5.64643 0.532486C5.64158 0.53245 5.63673 0.532415 5.63189 0.53238C5.62706 0.532345 5.62222 0.53231 5.6174 0.532275C5.61257 0.53224 5.60775 0.532205 5.60293 0.53217C5.59811 0.532135 5.5933 0.5321 5.58849 0.532065C5.58369 0.53203 5.57888 0.531995 5.57409 0.53196C5.56929 0.531925 5.5645 0.531891 5.55972 0.531856C5.55493 0.531821 5.55015 0.531786 5.54538 0.531752C5.5406 0.531717 5.53583 0.531682 5.53107 0.531648C5.5263 0.531613 5.52155 0.531579 5.51679 0.531544C5.51204 0.53151 5.50729 0.531475 5.50255 0.531441C5.49781 0.531406 5.49307 0.531372 5.48834 0.531338C5.48361 0.531303 5.47888 0.531269 5.47416 0.531235C5.46945 0.5312 5.46473 0.531166 5.46002 0.531132C5.45531 0.531098 5.45061 0.531064 5.44591 0.531029C5.44122 0.530995 5.43652 0.530961 5.43184 0.530927C5.42715 0.530893 5.42247 0.530859 5.41779 0.530825C5.41312 0.530791 5.40845 0.530757 5.40379 0.530724C5.39912 0.53069 5.39447 0.530656 5.38981 0.530622C5.38516 0.530588 5.38051 0.530555 5.37587 0.530521C5.37123 0.530487 5.3666 0.530454 5.36197 0.53042C5.35734 0.530386 5.35272 0.530353 5.3481 0.530319C5.34348 0.530286 5.33887 0.530252 5.33427 0.530219C5.32966 0.530185 5.32506 0.530152 5.32047 0.530119C5.31587 0.530085 5.31128 0.530052 5.3067 0.530019C5.30212 0.529985 5.29754 0.529952 5.29297 0.529919C5.2884 0.529886 5.28384 0.529853 5.27928 0.529819C5.27472 0.529786 5.27017 0.529753 5.26563 0.52972C5.26108 0.529687 5.25654 0.529654 5.25201 0.529621C5.24747 0.529588 5.24294 0.529556 5.23842 0.529523C5.2339 0.52949 5.22938 0.529457 5.22488 0.529424C5.22037 0.529392 5.21586 0.529359 5.21136 0.529326C5.20687 0.529294 5.20238 0.529261 5.19789 0.529228C5.19341 0.529196 5.18893 0.529163 5.18445 0.529131C5.17998 0.529098 5.17552 0.529066 5.17106 0.529034C5.1666 0.529001 5.16214 0.528969 5.15769 0.528937C5.15325 0.528904 5.14881 0.528872 5.14437 0.52884C5.13994 0.528808 5.13551 0.528775 5.13109 0.528743C5.12666 0.528711 5.12225 0.528679 5.11784 0.528647C5.11343 0.528615 5.10903 0.528583 5.10463 0.528551C5.10023 0.528519 5.09584 0.528487 5.09146 0.528456C5.08707 0.528424 5.0827 0.528392 5.07833 0.52836C5.07396 0.528328 5.06959 0.528297 5.06523 0.528265C5.06088 0.528233 5.05652 0.528202 5.05218 0.52817C5.04784 0.528139 5.0435 0.528107 5.03917 0.528076C5.03483 0.528044 5.03051 0.528013 5.02619 0.527982C5.02187 0.52795 5.01756 0.527919 5.01326 0.527888C5.00895 0.527856 5.00465 0.527825 5.00036 0.527794C4.99607 0.527763 4.99178 0.527732 4.9875 0.527701C4.98323 0.52767 4.97895 0.527639 4.97469 0.527608C4.97042 0.527577 4.96617 0.527546 4.96192 0.527515C4.95766 0.527484 4.95342 0.527453 4.94918 0.527422C4.94494 0.527392 4.94071 0.527361 4.93649 0.52733C4.93226 0.5273 4.92805 0.527269 4.92383 0.527238C4.91962 0.527208 4.91542 0.527177 4.91122 0.527147C4.90703 0.527116 4.90284 0.527086 4.89865 0.527055C4.89447 0.527025 4.8903 0.526995 4.88613 0.526964C4.88196 0.526934 4.8778 0.526904 4.87364 0.526874C4.86949 0.526844 4.86534 0.526814 4.8612 0.526783C4.85706 0.526753 4.85292 0.526723 4.8488 0.526693C4.84467 0.526663 4.84055 0.526633 4.83643 0.526604C4.83232 0.526574 4.82822 0.526544 4.82412 0.526514C4.82002 0.526484 4.81593 0.526455 4.81184 0.526425C4.80776 0.526395 4.80368 0.526366 4.79961 0.526336C4.79554 0.526307 4.79148 0.526277 4.78742 0.526248C4.78337 0.526218 4.77932 0.526189 4.77528 0.52616C4.77124 0.52613 4.76721 0.526101 4.76318 0.526072C4.75915 0.526042 4.75513 0.526013 4.75112 0.525984C4.74711 0.525955 4.7431 0.525926 4.73911 0.525897C4.73511 0.525868 4.73112 0.525839 4.72714 0.52581C4.72316 0.525781 4.71918 0.525752 4.71521 0.525723C4.71125 0.525695 4.70729 0.525666 4.70333 0.525637C4.69938 0.525608 4.69543 0.52558 4.6915 0.525551C4.68756 0.525523 4.68363 0.525494 4.67971 0.525466C4.67578 0.525437 4.67187 0.525409 4.66796 0.52538C4.66405 0.525352 4.66015 0.525324 4.65626 0.525295C4.65237 0.525267 4.64848 0.525239 4.6446 0.525211C4.64073 0.525182 4.63686 0.525154 4.633 0.525126C4.62913 0.525098 4.62528 0.52507 4.62143 0.525042C4.61758 0.525014 4.61375 0.524987 4.60991 0.524959C4.60608 0.524931 4.60226 0.524903 4.59844 0.524875C4.59463 0.524848 4.59082 0.52482 4.58702 0.524792C4.58322 0.524765 4.57942 0.524737 4.57564 0.52471C4.57186 0.524682 4.56808 0.524655 4.56431 0.524628C4.56054 0.5246 4.55678 0.524573 4.55302 0.524546C4.54927 0.524518 4.54553 0.524491 4.54179 0.524464C4.53805 0.524437 4.53432 0.52441 4.5306 0.524383C4.52688 0.524356 4.52316 0.524329 4.51946 0.524302C4.51575 0.524275 4.51205 0.524248 4.50836 0.524221C4.50467 0.524194 4.50099 0.524168 4.49731 0.524141C4.49364 0.524114 4.48997 0.524088 4.48632 0.524061C4.48266 0.524035 4.47901 0.524008 4.47537 0.523982C4.47172 0.523955 4.46809 0.523929 4.46446 0.523902C4.46084 0.523876 4.45722 0.52385 4.45361 0.523824C4.45 0.523797 4.4464 0.523771 4.44281 0.523745C4.43922 0.523719 4.43563 0.523693 4.43205 0.523667C4.42848 0.523641 4.42491 0.523615 4.42135 0.523589C4.41779 0.523564 4.41424 0.523538 4.41069 0.523512C4.40715 0.523486 4.40361 0.523461 4.40009 0.523435C4.39656 0.523409 4.39304 0.523384 4.38953 0.523358C4.38602 0.523333 4.38252 0.523307 4.37903 0.523282C4.37553 0.523257 4.37205 0.523231 4.36857 0.523206C4.36509 0.523181 4.36163 0.523156 4.35817 0.523131C4.3547 0.523105 4.35125 0.52308 4.34781 0.523055C4.34437 0.52303 4.34093 0.523005 4.33751 0.522981C4.33408 0.522956 4.33066 0.522931 4.32725 0.522906C4.32385 0.522881 4.32044 0.522857 4.31705 0.522832C4.31366 0.522807 4.31028 0.522783 4.3069 0.522758C4.30353 0.522734 4.30016 0.522709 4.29681 0.522685C4.29345 0.522661 4.2901 0.522636 4.28676 0.522612C4.28342 0.522588 4.28009 0.522564 4.27676 0.522539C4.27344 0.522515 4.27013 0.522491 4.26682 0.522467C4.26352 0.522443 4.26022 0.522419 4.25693 0.522395C4.25365 0.522372 4.25037 0.522348 4.2471 0.522324C4.24383 0.5223 4.24056 0.522277 4.23731 0.522253C4.23406 0.522229 4.23082 0.522206 4.22758 0.522182C4.22435 0.522159 4.22112 0.522135 4.2179 0.522112C4.21469 0.522089 4.21148 0.522065 4.20828 0.522042C4.20508 0.522019 4.20189 0.521996 4.19871 0.521973C4.19553 0.52195 4.19235 0.521927 4.18919 0.521904C4.18603 0.521881 4.18287 0.521858 4.17973 0.521835C4.17658 0.521812 4.17344 0.521789 4.17032 0.521766C4.16719 0.521744 4.16407 0.521721 4.16096 0.521699C4.15785 0.521676 4.15475 0.521653 4.15166 0.521631C4.14857 0.521609 4.14549 0.521586 4.14242 0.521564C4.13934 0.521542 4.13628 0.521519 4.13323 0.521497C4.13017 0.521475 4.12713 0.521453 4.12409 0.521431C4.12105 0.521409 4.11803 0.521387 4.11501 0.521365C4.11199 0.521343 4.10899 0.521321 4.10599 0.521299C4.10299 0.521278 4.1 0.521256 4.09702 0.521234C4.09404 0.521213 4.09107 0.521191 4.0881 0.521169C4.08514 0.521148 4.08219 0.521127 4.07925 0.521105C4.0763 0.521084 4.07337 0.521062 4.07045 0.521041C4.06752 0.52102 4.06461 0.520999 4.0617 0.520978C4.0588 0.520957 4.0559 0.520936 4.05301 0.520915C4.05013 0.520894 4.04725 0.520873 4.04438 0.520852C4.04152 0.520831 4.03866 0.52081 4.03581 0.52079C4.03296 0.520769 4.03012 0.520748 4.02729 0.520728C4.02446 0.520707 4.02164 0.520687 4.01884 0.520666L4.01157 1.52064ZM11.5687 1.0755C11.2022 1.41562 11.2023 1.41574 11.2024 1.41587C11.2024 1.41592 11.2026 1.41605 11.2027 1.41614C11.2028 1.41632 11.203 1.41651 11.2032 1.41671C11.2036 1.41711 11.204 1.41754 11.2044 1.41801C11.2053 1.41895 11.2063 1.42002 11.2074 1.42123C11.2097 1.42364 11.2125 1.42659 11.2159 1.43003C11.2226 1.43691 11.2314 1.4458 11.2422 1.45641C11.2638 1.4776 11.2937 1.50582 11.3312 1.53872C11.4059 1.60416 11.5131 1.69002 11.648 1.77614C11.9131 1.94534 12.3145 2.13427 12.8014 2.1378L12.8087 1.13783C12.5761 1.13614 12.3594 1.04391 12.1861 0.933265C12.1018 0.879452 12.0349 0.825723 11.9902 0.786544C11.968 0.76713 11.9519 0.751788 11.9424 0.742491C11.9377 0.737858 11.9347 0.734775 11.9334 0.733495C11.9328 0.732858 11.9326 0.732673 11.9329 0.732977C11.9331 0.73313 11.9333 0.733405 11.9337 0.733805C11.9339 0.734004 11.9341 0.734237 11.9343 0.734502C11.9345 0.734632 11.9346 0.734772 11.9347 0.73492C11.9348 0.734995 11.9349 0.735112 11.9349 0.735149C11.9351 0.735268 11.9352 0.735391 11.5687 1.0755ZM12.8014 2.1378C13.2861 2.14132 13.6976 1.95972 13.9706 1.79782C14.1101 1.7151 14.2223 1.63226 14.3007 1.56918C14.3402 1.53748 14.3716 1.51031 14.3943 1.49C14.4057 1.47984 14.4149 1.47135 14.4219 1.46484C14.4253 1.46158 14.4283 1.4588 14.4306 1.45655C14.4318 1.45543 14.4328 1.45443 14.4337 1.45357C14.4341 1.45314 14.4346 1.45275 14.4349 1.45239C14.4351 1.4522 14.4353 1.45203 14.4355 1.45187C14.4355 1.45179 14.4357 1.45167 14.4357 1.45163C14.4358 1.45151 14.4359 1.4514 14.0865 1.09379C13.737 0.736175 13.7372 0.736067 13.7373 0.735961C13.7373 0.735929 13.7374 0.735824 13.7375 0.73576C13.7376 0.735629 13.7377 0.735506 13.7378 0.735393C13.7381 0.735164 13.7383 0.734965 13.7385 0.7348C13.7388 0.734467 13.739 0.734261 13.7391 0.734175C13.7393 0.734003 13.739 0.734314 13.7381 0.735074C13.7365 0.7366 13.733 0.73991 13.7275 0.744752C13.7167 0.754466 13.6986 0.770166 13.6741 0.789872C13.6247 0.829613 13.5514 0.883766 13.4605 0.937697C13.2726 1.04912 13.0433 1.13953 12.8087 1.13783L12.8014 2.1378ZM14.0829 1.59377L18.3991 1.62512L18.4064 0.625144L14.0901 0.593801L14.0829 1.59377ZM17.9028 1.1215L17.8239 11.9759L18.8239 11.9832L18.9027 1.12876L17.9028 1.1215ZM14.5077 11.9518L14.5865 1.09742L13.5865 1.09016L13.5077 11.9446L14.5077 11.9518ZM2.8941 6.80187C2.99627 6.31242 2.9964 6.31244 2.99653 6.31247C2.99656 6.31248 2.99668 6.3125 2.99675 6.31252C2.99688 6.31254 2.99698 6.31256 2.99706 6.31258C2.99722 6.31262 2.99727 6.31263 2.99722 6.31262C2.99712 6.31259 2.9966 6.31248 2.99569 6.31228C2.99385 6.31188 2.99043 6.31112 2.98551 6.31C2.97567 6.30775 2.95993 6.30404 2.93913 6.2988C2.89744 6.28829 2.83601 6.27177 2.76155 6.24871C2.61087 6.20204 2.41551 6.13122 2.22508 6.03371C1.80002 5.81604 1.60446 5.57792 1.60615 5.34517L0.606179 5.33791C0.599987 6.19061 1.2984 6.68266 1.76928 6.92379C2.02681 7.05567 2.27992 7.14641 2.4657 7.20395C2.55948 7.23299 2.63828 7.25424 2.69477 7.26848C2.72306 7.27561 2.74589 7.28101 2.76235 7.28478C2.77059 7.28667 2.77725 7.28815 2.78221 7.28923C2.78469 7.28977 2.78675 7.29022 2.78838 7.29056C2.78919 7.29074 2.78989 7.29089 2.79048 7.29101C2.79078 7.29107 2.79105 7.29113 2.79129 7.29118C2.79141 7.29121 2.79157 7.29124 2.79163 7.29125C2.79178 7.29128 2.79193 7.29131 2.8941 6.80187ZM1.60615 5.34517C1.60784 5.11243 1.80684 4.87717 2.23501 4.6657C2.42684 4.57096 2.62321 4.50299 2.77455 4.45851C2.84934 4.43653 2.911 4.42091 2.95284 4.41101C2.97371 4.40607 2.98951 4.40259 2.99938 4.40048C3.00431 4.39943 3.00775 4.39872 3.00958 4.39835C3.0105 4.39816 3.01102 4.39806 3.01112 4.39804C3.01118 4.39803 3.01112 4.39804 3.01096 4.39807C3.01089 4.39808 3.01078 4.39811 3.01065 4.39813C3.01058 4.39814 3.01046 4.39817 3.01043 4.39817C3.0103 4.3982 3.01017 4.39822 2.91512 3.90734C2.82007 3.41646 2.81992 3.41649 2.81977 3.41652C2.81971 3.41653 2.81955 3.41656 2.81943 3.41658C2.81918 3.41663 2.81891 3.41668 2.81862 3.41674C2.81802 3.41686 2.81732 3.417 2.8165 3.41716C2.81487 3.41748 2.81281 3.4179 2.81032 3.4184C2.80534 3.41942 2.79866 3.4208 2.7904 3.42256C2.77388 3.42609 2.75098 3.43116 2.72259 3.43788C2.6659 3.45129 2.5868 3.4714 2.49261 3.49908C2.306 3.55392 2.05161 3.64097 1.79219 3.7691C1.31785 4.00337 0.612371 4.48521 0.606179 5.33791L1.60615 5.34517ZM2.8752 9.40383C2.99528 8.91846 2.99541 8.91849 2.99553 8.91852C2.99556 8.91853 2.99567 8.91856 2.99574 8.91857C2.99586 8.9186 2.99597 8.91863 2.99604 8.91865C2.99619 8.91868 2.99623 8.9187 2.99617 8.91868C2.99605 8.91865 2.99552 8.91852 2.99458 8.91827C2.99271 8.91779 2.98924 8.91689 2.98429 8.91557C2.97436 8.91291 2.95853 8.90857 2.93763 8.90249C2.89575 8.89032 2.83407 8.87135 2.75931 8.84531C2.60815 8.79264 2.41168 8.71385 2.21979 8.60814C1.79203 8.37249 1.58601 8.11887 1.58776 7.87788L0.587787 7.87062C0.581655 8.71508 1.26935 9.22625 1.73727 9.48402C1.99323 9.62503 2.2451 9.72511 2.43031 9.78964C2.52374 9.82219 2.60226 9.8464 2.65852 9.86275C2.6867 9.87094 2.70943 9.8772 2.7258 9.88158C2.734 9.88377 2.74061 9.8855 2.74553 9.88677C2.74799 9.8874 2.75003 9.88792 2.75164 9.88832C2.75244 9.88852 2.75313 9.8887 2.75372 9.88884C2.75401 9.88892 2.75427 9.88898 2.75451 9.88904C2.75463 9.88907 2.75478 9.88911 2.75484 9.88912C2.75499 9.88916 2.75513 9.8892 2.8752 9.40383ZM1.58776 7.87788C1.58858 7.7652 1.62812 7.69153 1.70621 7.62186C1.79863 7.53941 1.94551 7.46638 2.13487 7.41073C2.31906 7.3566 2.50993 7.32856 2.6594 7.31462C2.73291 7.30777 2.79357 7.30458 2.83472 7.3031C2.85523 7.30237 2.87072 7.30207 2.88033 7.30194C2.88513 7.30188 2.88845 7.30186 2.89018 7.30186C2.89104 7.30186 2.89151 7.30186 2.89156 7.30186C2.89159 7.30186 2.89151 7.30186 2.89133 7.30186C2.89124 7.30186 2.89112 7.30186 2.89098 7.30186C2.89091 7.30185 2.89078 7.30185 2.89074 7.30185C2.89061 7.30185 2.89047 7.30185 2.8941 6.80187C2.89773 6.30188 2.89758 6.30188 2.89741 6.30188C2.89735 6.30188 2.89718 6.30187 2.89706 6.30187C2.8968 6.30187 2.89652 6.30187 2.89622 6.30187C2.8956 6.30187 2.89487 6.30186 2.89403 6.30186C2.89236 6.30186 2.89024 6.30186 2.8877 6.30186C2.88263 6.30188 2.87585 6.30192 2.86747 6.30203C2.85074 6.30224 2.82758 6.30272 2.7989 6.30374C2.74167 6.3058 2.66176 6.31006 2.56654 6.31894C2.37855 6.33648 2.11933 6.37301 1.85292 6.4513C1.59168 6.52807 1.28748 6.6553 1.04047 6.87568C0.779134 7.10884 0.59091 7.44058 0.587787 7.87062L1.58776 7.87788ZM2.14147 11.362C2.03638 11.3613 1.87704 11.327 1.75907 11.2412C1.6676 11.1747 1.56469 11.0549 1.56674 10.7724L0.566768 10.7651C0.562406 11.3659 0.815245 11.7914 1.17105 12.0501C1.50035 12.2895 1.87981 12.3602 2.13441 12.362L2.14147 11.362ZM1.56674 10.7724C1.56703 10.7323 1.58665 10.655 1.70509 10.5369C1.82309 10.4193 1.99795 10.3041 2.20107 10.2002C2.39997 10.0985 2.60271 10.0192 2.7582 9.965C2.83521 9.93814 2.89887 9.91803 2.94242 9.90487C2.96415 9.8983 2.98076 9.8935 2.99139 9.89048C2.9967 9.88897 3.00051 9.88792 3.0027 9.88731C3.0038 9.88701 3.00449 9.88682 3.00477 9.88675C3.00491 9.88671 3.00494 9.8867 3.00487 9.88672C3.00483 9.88673 3.00477 9.88675 3.00468 9.88677C3.00463 9.88679 3.00454 9.88681 3.00452 9.88682C3.00443 9.88684 3.00433 9.88687 2.8752 9.40383C2.74608 8.92079 2.74597 8.92082 2.74585 8.92085C2.7458 8.92086 2.74567 8.9209 2.74557 8.92092C2.74537 8.92098 2.74514 8.92104 2.74489 8.92111C2.74438 8.92125 2.74376 8.92141 2.74303 8.92161C2.74157 8.92201 2.73968 8.92252 2.73737 8.92316C2.73274 8.92443 2.72643 8.92619 2.71854 8.92843C2.70277 8.9329 2.68066 8.93931 2.6531 8.94763C2.59807 8.96427 2.52091 8.98868 2.42887 9.02079C2.24628 9.08447 1.99812 9.18083 1.7457 9.30993C1.4975 9.43688 1.22066 9.60777 0.998975 9.82883C0.77773 10.0495 0.569684 10.3636 0.566768 10.7651L1.56674 10.7724ZM2.91512 3.90734C3.14638 3.46404 3.14649 3.46409 3.14659 3.46415C3.14662 3.46416 3.14671 3.46421 3.14677 3.46424C3.14688 3.4643 3.14697 3.46435 3.14704 3.46438C3.14719 3.46446 3.14726 3.4645 3.14726 3.4645C3.14725 3.46449 3.14696 3.46434 3.14638 3.46403C3.14523 3.46342 3.14296 3.4622 3.13964 3.4604C3.13301 3.4568 3.12226 3.45088 3.10803 3.44279C3.0795 3.42656 3.03746 3.40187 2.98699 3.36992C2.88455 3.30506 2.7546 3.2148 2.63377 3.10903C2.50943 3.00018 2.41639 2.89358 2.36482 2.80046C2.31612 2.71252 2.32282 2.6731 2.32739 2.65685L1.36473 2.38615C1.26776 2.73099 1.35732 3.04535 1.49003 3.28496C1.61987 3.51939 1.80679 3.71412 1.97509 3.86146C2.14692 4.01187 2.32231 4.13266 2.45205 4.21481C2.51767 4.25635 2.57343 4.28916 2.61367 4.31204C2.63384 4.32351 2.65022 4.33255 2.66212 4.33902C2.66807 4.34226 2.67292 4.34486 2.67657 4.3468C2.67839 4.34777 2.67992 4.34858 2.68114 4.34922C2.68175 4.34954 2.68228 4.34982 2.68273 4.35006C2.68296 4.35018 2.68317 4.35028 2.68335 4.35038C2.68345 4.35043 2.68357 4.3505 2.68362 4.35052C2.68374 4.35058 2.68386 4.35064 2.91512 3.90734ZM2.32739 2.65685C2.41224 2.35512 2.55415 2.07852 2.79091 1.87745C3.02062 1.68237 3.38918 1.51612 4.01157 1.52064L4.01884 0.520666C3.20248 0.514738 2.588 0.737817 2.1436 1.11522C1.70625 1.48664 1.48297 1.96568 1.36473 2.38615L2.32739 2.65685Z" fill="#68745C"/>
</svg>
