<svg width="19" height="21" viewBox="0 0 19 21" fill="none" xmlns="http://www.w3.org/2000/svg">
<path d="M1 9.07873V8.57873H0.5V9.07873H1ZM7.72917 5.43829L8.22441 5.50712L7.72917 5.43829ZM10.5625 3.61806L11.0533 3.52257L10.5625 3.61806ZM10.5625 9.07873L10.0648 9.03032L10.0115 9.57873H10.5625V9.07873ZM16.9375 9.07873V9.57873H16.9376L16.9375 9.07873ZM16.2292 11.5573L16.0939 11.076C15.8752 11.1374 15.7254 11.3386 15.7292 11.5658C15.7331 11.7929 15.8896 11.9889 16.1102 12.0429L16.2292 11.5573ZM16.2292 14.1753V13.6753C15.9726 13.6753 15.7577 13.8695 15.7317 14.1247C15.7058 14.3799 15.8772 14.6134 16.1285 14.665L16.2292 14.1753ZM16.2292 17.0876L16.1285 16.5979C15.9214 16.6405 15.7635 16.8086 15.734 17.018C15.7046 17.2273 15.8099 17.4325 15.9972 17.5306L16.2292 17.0876ZM7.72917 20L7.29277 20.244L7.4359 20.5H7.72917V20ZM5.25 20V20.5H5.44093L5.58327 20.3727L5.25 20ZM1 20H0.5V20.5H1V20ZM1 9.57873H5.25V8.57873H1V9.57873ZM5.47855 9.52344C6.28508 9.10893 7.91231 7.75271 8.22441 5.50712L7.23393 5.36946C6.97935 7.20116 5.63158 8.32045 5.02145 8.63403L5.47855 9.52344ZM8.22441 5.50712C8.41614 4.12752 8.12546 3.04072 7.94938 2.31676C7.85442 1.92633 7.81617 1.72149 7.82838 1.59597C7.83262 1.55238 7.84067 1.5553 7.82924 1.5696C7.81874 1.58274 7.82292 1.56617 7.89123 1.54276L7.5671 0.596746C7.36979 0.664349 7.18582 0.77291 7.04804 0.945319C6.90933 1.1189 6.85097 1.31521 6.83308 1.49915C6.80102 1.82869 6.89558 2.21542 6.9777 2.55308C7.15579 3.2853 7.39636 4.20074 7.23393 5.36946L8.22441 5.50712ZM7.89123 1.54276C8.20045 1.43681 8.63896 1.52146 9.08619 1.90454C9.52488 2.28031 9.91436 2.90488 10.0717 3.71356L11.0533 3.52257C10.8565 2.51102 10.3605 1.67941 9.73673 1.14507C9.12146 0.618046 8.32038 0.338648 7.5671 0.596746L7.89123 1.54276ZM10.0717 3.71356C10.2025 4.38563 10.2337 5.40173 10.2131 6.4294C10.1927 7.44659 10.1228 8.43482 10.0648 9.03032L11.0602 9.12715C11.1203 8.50916 11.192 7.49515 11.2129 6.44942C11.2337 5.41417 11.2059 4.30667 11.0533 3.52257L10.0717 3.71356ZM10.5625 9.57873H16.9375V8.57873H10.5625V9.57873ZM15.1667 19.5C15.1639 19.5 15.1611 19.5 15.1583 19.5C15.1556 19.5 15.1528 19.5 15.15 19.5C15.1471 19.5 15.1443 19.5 15.1415 19.5C15.1387 19.5 15.1359 19.5 15.133 19.5C15.1302 19.5 15.1273 19.5 15.1245 19.5C15.1216 19.5 15.1187 19.5 15.1158 19.5C15.113 19.5 15.1101 19.5 15.1072 19.5C15.1043 19.5 15.1014 19.5 15.0985 19.5C15.0955 19.5 15.0926 19.5 15.0897 19.5C15.0868 19.5 15.0838 19.5 15.0809 19.5C15.0779 19.5 15.0749 19.5 15.072 19.5C15.069 19.5 15.066 19.5 15.063 19.5C15.06 19.5 15.057 19.5 15.054 19.5C15.051 19.5 15.048 19.5 15.045 19.5C15.042 19.5 15.0389 19.5 15.0359 19.5C15.0328 19.5 15.0298 19.5 15.0267 19.5C15.0237 19.5 15.0206 19.5 15.0175 19.5C15.0144 19.5 15.0113 19.5 15.0082 19.5C15.0051 19.5 15.002 19.5 14.9989 19.5C14.9958 19.5 14.9927 19.5 14.9896 19.5C14.9864 19.5 14.9833 19.5 14.9801 19.5C14.977 19.5 14.9738 19.5 14.9707 19.5C14.9675 19.5 14.9643 19.5 14.9611 19.5C14.9579 19.5 14.9547 19.5 14.9515 19.5C14.9483 19.5 14.9451 19.5 14.9419 19.5C14.9387 19.5 14.9355 19.5 14.9322 19.5C14.929 19.5 14.9257 19.5 14.9225 19.5C14.9192 19.5 14.916 19.5 14.9127 19.5C14.9094 19.5 14.9061 19.5 14.9029 19.5C14.8996 19.5 14.8963 19.5 14.893 19.5C14.8897 19.5 14.8863 19.5 14.883 19.5C14.8797 19.5 14.8764 19.5 14.873 19.5C14.8697 19.5 14.8663 19.5 14.863 19.5C14.8596 19.5 14.8563 19.5 14.8529 19.5C14.8495 19.5 14.8461 19.5 14.8427 19.5C14.8394 19.5 14.836 19.5 14.8325 19.5C14.8291 19.5 14.8257 19.5 14.8223 19.5C14.8189 19.5 14.8154 19.5 14.812 19.5C14.8086 19.5 14.8051 19.5 14.8017 19.5C14.7982 19.5 14.7947 19.5 14.7913 19.5C14.7878 19.5 14.7843 19.5 14.7808 19.5C14.7773 19.5 14.7738 19.5 14.7703 19.5C14.7668 19.5 14.7633 19.5 14.7598 19.5C14.7563 19.5 14.7527 19.5 14.7492 19.5C14.7457 19.5 14.7421 19.5 14.7386 19.5C14.735 19.5 14.7314 19.5 14.7279 19.5C14.7243 19.5 14.7207 19.5 14.7171 19.5C14.7136 19.5 14.71 19.5 14.7064 19.5C14.7028 19.5 14.6992 19.5 14.6955 19.5C14.6919 19.5 14.6883 19.5 14.6847 19.5C14.681 19.5 14.6774 19.5 14.6737 19.5C14.6701 19.5 14.6664 19.5 14.6628 19.5C14.6591 19.5 14.6554 19.5 14.6517 19.5C14.6481 19.5 14.6444 19.5 14.6407 19.5C14.637 19.5 14.6333 19.5 14.6296 19.5C14.6259 19.5 14.6221 19.5 14.6184 19.5C14.6147 19.5 14.6109 19.5 14.6072 19.5C14.6035 19.5 14.5997 19.5 14.596 19.5C14.5922 19.5 14.5884 19.5 14.5847 19.5C14.5809 19.5 14.5771 19.5 14.5733 19.5C14.5695 19.5 14.5657 19.5 14.5619 19.5C14.5581 19.5 14.5543 19.5 14.5505 19.5C14.5467 19.5 14.5429 19.5 14.539 19.5C14.5352 19.5 14.5314 19.5 14.5275 19.5C14.5237 19.5 14.5198 19.5 14.5159 19.5C14.5121 19.5 14.5082 19.5 14.5043 19.5C14.5005 19.5 14.4966 19.5 14.4927 19.5C14.4888 19.5 14.4849 19.5 14.481 19.5C14.4771 19.5 14.4732 19.5 14.4692 19.5C14.4653 19.5 14.4614 19.5 14.4575 19.5C14.4535 19.5 14.4496 19.5 14.4456 19.5C14.4417 19.5 14.4377 19.5 14.4337 19.5C14.4298 19.5 14.4258 19.5 14.4218 19.5C14.4179 19.5 14.4139 19.5 14.4099 19.5C14.4059 19.5 14.4019 19.5 14.3979 19.5C14.3939 19.5 14.3899 19.5 14.3858 19.5C14.3818 19.5 14.3778 19.5 14.3737 19.5C14.3697 19.5 14.3657 19.5 14.3616 19.5C14.3576 19.5 14.3535 19.5 14.3494 19.5C14.3454 19.5 14.3413 19.5 14.3372 19.5C14.3332 19.5 14.3291 19.5 14.325 19.5C14.3209 19.5 14.3168 19.5 14.3127 19.5C14.3086 19.5 14.3045 19.5 14.3004 19.5C14.2962 19.5 14.2921 19.5 14.288 19.5C14.2838 19.5 14.2797 19.5 14.2756 19.5C14.2714 19.5 14.2673 19.5 14.2631 19.5C14.2589 19.5 14.2548 19.5 14.2506 19.5C14.2464 19.5 14.2423 19.5 14.2381 19.5C14.2339 19.5 14.2297 19.5 14.2255 19.5C14.2213 19.5 14.2171 19.5 14.2129 19.5C14.2087 19.5 14.2044 19.5 14.2002 19.5C14.196 19.5 14.1918 19.5 14.1875 19.5C14.1833 19.5 14.179 19.5 14.1748 19.5C14.1705 19.5 14.1663 19.5 14.162 19.5C14.1577 19.5 14.1535 19.5 14.1492 19.5C14.1449 19.5 14.1406 19.5 14.1363 19.5C14.132 19.5 14.1277 19.5 14.1234 19.5C14.1191 19.5 14.1148 19.5 14.1105 19.5C14.1062 19.5 14.1019 19.5 14.0975 19.5C14.0932 19.5 14.0889 19.5 14.0845 19.5C14.0802 19.5 14.0758 19.5 14.0715 19.5C14.0671 19.5 14.0628 19.5 14.0584 19.5C14.054 19.5 14.0497 19.5 14.0453 19.5C14.0409 19.5 14.0365 19.5 14.0321 19.5C14.0277 19.5 14.0233 19.5 14.0189 19.5C14.0145 19.5 14.0101 19.5 14.0057 19.5C14.0013 19.5 13.9969 19.5 13.9924 19.5C13.988 19.5 13.9836 19.5 13.9791 19.5C13.9747 19.5 13.9703 19.5 13.9658 19.5C13.9614 19.5 13.9569 19.5 13.9524 19.5C13.948 19.5 13.9435 19.5 13.939 19.5C13.9345 19.5 13.9301 19.5 13.9256 19.5C13.9211 19.5 13.9166 19.5 13.9121 19.5C13.9076 19.5 13.9031 19.5 13.8986 19.5C13.8941 19.5 13.8895 19.5 13.885 19.5C13.8805 19.5 13.876 19.5 13.8714 19.5C13.8669 19.5 13.8624 19.5 13.8578 19.5C13.8533 19.5 13.8487 19.5 13.8442 19.5C13.8396 19.5 13.835 19.5 13.8305 19.5C13.8259 19.5 13.8213 19.5 13.8167 19.5C13.8122 19.5 13.8076 19.5 13.803 19.5C13.7984 19.5 13.7938 19.5 13.7892 19.5C13.7846 19.5 13.78 19.5 13.7754 19.5C13.7707 19.5 13.7661 19.5 13.7615 19.5C13.7569 19.5 13.7522 19.5 13.7476 19.5C13.743 19.5 13.7383 19.5 13.7337 19.5C13.729 19.5 13.7244 19.5 13.7197 19.5C13.7151 19.5 13.7104 19.5 13.7057 19.5C13.7011 19.5 13.6964 19.5 13.6917 19.5C13.687 19.5 13.6823 19.5 13.6776 19.5C13.673 19.5 13.6683 19.5 13.6636 19.5C13.6589 19.5 13.6542 19.5 13.6494 19.5C13.6447 19.5 13.64 19.5 13.6353 19.5C13.6306 19.5 13.6258 19.5 13.6211 19.5C13.6164 19.5 13.6116 19.5 13.6069 19.5C13.6021 19.5 13.5974 19.5 13.5926 19.5C13.5879 19.5 13.5831 19.5 13.5784 19.5C13.5736 19.5 13.5688 19.5 13.5641 19.5C13.5593 19.5 13.5545 19.5 13.5497 19.5C13.5449 19.5 13.5402 19.5 13.5354 19.5C13.5306 19.5 13.5258 19.5 13.521 19.5C13.5162 19.5 13.5113 19.5 13.5065 19.5C13.5017 19.5 13.4969 19.5 13.4921 19.5C13.4873 19.5 13.4824 19.5 13.4776 19.5C13.4728 19.5 13.4679 19.5 13.4631 19.5C13.4582 19.5 13.4534 19.5 13.4485 19.5C13.4437 19.5 13.4388 19.5 13.4339 19.5C13.4291 19.5 13.4242 19.5 13.4193 19.5C13.4145 19.5 13.4096 19.5 13.4047 19.5C13.3998 19.5 13.3949 19.5 13.3901 19.5C13.3852 19.5 13.3803 19.5 13.3754 19.5C13.3705 19.5 13.3656 19.5 13.3606 19.5C13.3557 19.5 13.3508 19.5 13.3459 19.5C13.341 19.5 13.3361 19.5 13.3311 19.5C13.3262 19.5 13.3213 19.5 13.3163 19.5C13.3114 19.5 13.3064 19.5 13.3015 19.5C13.2966 19.5 13.2916 19.5 13.2866 19.5C13.2817 19.5 13.2767 19.5 13.2718 19.5C13.2668 19.5 13.2618 19.5 13.2569 19.5C13.2519 19.5 13.2469 19.5 13.2419 19.5C13.2369 19.5 13.232 19.5 13.227 19.5C13.222 19.5 13.217 19.5 13.212 19.5C13.207 19.5 13.202 19.5 13.197 19.5C13.192 19.5 13.1869 19.5 13.1819 19.5C13.1769 19.5 13.1719 19.5 13.1669 19.5C13.1618 19.5 13.1568 19.5 13.1518 19.5C13.1467 19.5 13.1417 19.5 13.1367 19.5C13.1316 19.5 13.1266 19.5 13.1215 19.5C13.1165 19.5 13.1114 19.5 13.1063 19.5C13.1013 19.5 13.0962 19.5 13.0912 19.5C13.0861 19.5 13.081 19.5 13.0759 19.5C13.0709 19.5 13.0658 19.5 13.0607 19.5C13.0556 19.5 13.0505 19.5 13.0454 19.5C13.0404 19.5 13.0353 19.5 13.0302 19.5C13.0251 19.5 13.02 19.5 13.0148 19.5C13.0097 19.5 13.0046 19.5 12.9995 19.5C12.9944 19.5 12.9893 19.5 12.9842 19.5C12.979 19.5 12.9739 19.5 12.9688 19.5C12.9636 19.5 12.9585 19.5 12.9534 19.5C12.9482 19.5 12.9431 19.5 12.9379 19.5C12.9328 19.5 12.9277 19.5 12.9225 19.5C12.9173 19.5 12.9122 19.5 12.907 19.5C12.9019 19.5 12.8967 19.5 12.8915 19.5C12.8864 19.5 12.8812 19.5 12.876 19.5C12.8708 19.5 12.8657 19.5 12.8605 19.5C12.8553 19.5 12.8501 19.5 12.8449 19.5C12.8397 19.5 12.8345 19.5 12.8294 19.5C12.8242 19.5 12.819 19.5 12.8137 19.5C12.8085 19.5 12.8033 19.5 12.7981 19.5C12.7929 19.5 12.7877 19.5 12.7825 19.5C12.7773 19.5 12.772 19.5 12.7668 19.5C12.7616 19.5 12.7564 19.5 12.7511 19.5C12.7459 19.5 12.7407 19.5 12.7354 19.5C12.7302 19.5 12.725 19.5 12.7197 19.5C12.7145 19.5 12.7092 19.5 12.704 19.5C12.6987 19.5 12.6935 19.5 12.6882 19.5C12.6829 19.5 12.6777 19.5 12.6724 19.5C12.6672 19.5 12.6619 19.5 12.6566 19.5C12.6513 19.5 12.6461 19.5 12.6408 19.5C12.6355 19.5 12.6302 19.5 12.625 19.5C12.6197 19.5 12.6144 19.5 12.6091 19.5C12.6038 19.5 12.5985 19.5 12.5932 19.5C12.5879 19.5 12.5826 19.5 12.5773 19.5C12.572 19.5 12.5667 19.5 12.5614 19.5C12.5561 19.5 12.5508 19.5 12.5455 19.5C12.5402 19.5 12.5348 19.5 12.5295 19.5C12.5242 19.5 12.5189 19.5 12.5136 19.5C12.5082 19.5 12.5029 19.5 12.4976 19.5C12.4922 19.5 12.4869 19.5 12.4816 19.5C12.4762 19.5 12.4709 19.5 12.4656 19.5C12.4602 19.5 12.4549 19.5 12.4495 19.5C12.4442 19.5 12.4388 19.5 12.4335 19.5C12.4281 19.5 12.4228 19.5 12.4174 19.5C12.412 19.5 12.4067 19.5 12.4013 19.5C12.3959 19.5 12.3906 19.5 12.3852 19.5C12.3798 19.5 12.3745 19.5 12.3691 19.5C12.3637 19.5 12.3583 19.5 12.353 19.5C12.3476 19.5 12.3422 19.5 12.3368 19.5C12.3314 19.5 12.326 19.5 12.3206 19.5C12.3153 19.5 12.3099 19.5 12.3045 19.5C12.2991 19.5 12.2937 19.5 12.2883 19.5C12.2829 19.5 12.2775 19.5 12.2721 19.5C12.2667 19.5 12.2613 19.5 12.2558 19.5C12.2504 19.5 12.245 19.5 12.2396 19.5C12.2342 19.5 12.2288 19.5 12.2234 19.5C12.2179 19.5 12.2125 19.5 12.2071 19.5C12.2017 19.5 12.1962 19.5 12.1908 19.5C12.1854 19.5 12.1799 19.5 12.1745 19.5C12.1691 19.5 12.1636 19.5 12.1582 19.5C12.1528 19.5 12.1473 19.5 12.1419 19.5C12.1364 19.5 12.131 19.5 12.1256 19.5C12.1201 19.5 12.1147 19.5 12.1092 19.5C12.1038 19.5 12.0983 19.5 12.0928 19.5C12.0874 19.5 12.0819 19.5 12.0765 19.5C12.071 19.5 12.0656 19.5 12.0601 19.5C12.0546 19.5 12.0492 19.5 12.0437 19.5C12.0382 19.5 12.0328 19.5 12.0273 19.5C12.0218 19.5 12.0163 19.5 12.0109 19.5C12.0054 19.5 11.9999 19.5 11.9944 19.5C11.989 19.5 11.9835 19.5 11.978 19.5C11.9725 19.5 11.967 19.5 11.9615 19.5C11.9561 19.5 11.9506 19.5 11.9451 19.5C11.9396 19.5 11.9341 19.5 11.9286 19.5C11.9231 19.5 11.9176 19.5 11.9121 19.5C11.9066 19.5 11.9011 19.5 11.8956 19.5C11.8901 19.5 11.8846 19.5 11.8791 19.5C11.8736 19.5 11.8681 19.5 11.8626 19.5C11.8571 19.5 11.8516 19.5 11.8461 19.5C11.8406 19.5 11.8351 19.5 11.8295 19.5C11.824 19.5 11.8185 19.5 11.813 19.5C11.8075 19.5 11.802 19.5 11.7964 19.5C11.7909 19.5 11.7854 19.5 11.7799 19.5C11.7744 19.5 11.7688 19.5 11.7633 19.5C11.7578 19.5 11.7523 19.5 11.7467 19.5C11.7412 19.5 11.7357 19.5 11.7301 19.5C11.7246 19.5 11.7191 19.5 11.7135 19.5C11.708 19.5 11.7025 19.5 11.6969 19.5C11.6914 19.5 11.6859 19.5 11.6803 19.5C11.6748 19.5 11.6692 19.5 11.6637 19.5C11.6582 19.5 11.6526 19.5 11.6471 19.5C11.6415 19.5 11.636 19.5 11.6304 19.5C11.6249 19.5 11.6193 19.5 11.6138 19.5C11.6082 19.5 11.6027 19.5 11.5971 19.5C11.5916 19.5 11.586 19.5 11.5805 19.5C11.5749 19.5 11.5694 19.5 11.5638 19.5C11.5583 19.5 11.5527 19.5 11.5472 19.5C11.5416 19.5 11.536 19.5 11.5305 19.5C11.5249 19.5 11.5194 19.5 11.5138 19.5C11.5082 19.5 11.5027 19.5 11.4971 19.5C11.4915 19.5 11.486 19.5 11.4804 19.5C11.4748 19.5 11.4693 19.5 11.4637 19.5C11.4581 19.5 11.4526 19.5 11.447 19.5C11.4414 19.5 11.4359 19.5 11.4303 19.5C11.4247 19.5 11.4192 19.5 11.4136 19.5C11.408 19.5 11.4024 19.5 11.3969 19.5C11.3913 19.5 11.3857 19.5 11.3801 19.5C11.3746 19.5 11.369 19.5 11.3634 19.5C11.3578 19.5 11.3523 19.5 11.3467 19.5C11.3411 19.5 11.3355 19.5 11.3299 19.5C11.3244 19.5 11.3188 19.5 11.3132 19.5C11.3076 19.5 11.302 19.5 11.2965 19.5C11.2909 19.5 11.2853 19.5 11.2797 19.5C11.2741 19.5 11.2686 19.5 11.263 19.5C11.2574 19.5 11.2518 19.5 11.2462 19.5C11.2406 19.5 11.235 19.5 11.2295 19.5C11.2239 19.5 11.2183 19.5 11.2127 19.5C11.2071 19.5 11.2015 19.5 11.1959 19.5C11.1904 19.5 11.1848 19.5 11.1792 19.5C11.1736 19.5 11.168 19.5 11.1624 19.5C11.1568 19.5 11.1512 19.5 11.1456 19.5C11.1401 19.5 11.1345 19.5 11.1289 19.5C11.1233 19.5 11.1177 19.5 11.1121 19.5C11.1065 19.5 11.1009 19.5 11.0953 19.5C11.0897 19.5 11.0842 19.5 11.0786 19.5C11.073 19.5 11.0674 19.5 11.0618 19.5C11.0562 19.5 11.0506 19.5 11.045 19.5C11.0394 19.5 11.0338 19.5 11.0282 19.5C11.0227 19.5 11.0171 19.5 11.0115 19.5C11.0059 19.5 11.0003 19.5 10.9947 19.5C10.9891 19.5 10.9835 19.5 10.9779 19.5C10.9723 19.5 10.9667 19.5 10.9611 19.5C10.9556 19.5 10.95 19.5 10.9444 19.5C10.9388 19.5 10.9332 19.5 10.9276 19.5C10.922 19.5 10.9164 19.5 10.9108 19.5C10.9052 19.5 10.8996 19.5 10.8941 19.5C10.8885 19.5 10.8829 19.5 10.8773 19.5C10.8717 19.5 10.8661 19.5 10.8605 19.5C10.8549 19.5 10.8493 19.5 10.8438 19.5C10.8382 19.5 10.8326 19.5 10.827 19.5C10.8214 19.5 10.8158 19.5 10.8102 19.5C10.8046 19.5 10.799 19.5 10.7935 19.5C10.7879 19.5 10.7823 19.5 10.7767 19.5C10.7711 19.5 10.7655 19.5 10.7599 19.5C10.7544 19.5 10.7488 19.5 10.7432 19.5C10.7376 19.5 10.732 19.5 10.7264 19.5C10.7209 19.5 10.7153 19.5 10.7097 19.5C10.7041 19.5 10.6985 19.5 10.693 19.5C10.6874 19.5 10.6818 19.5 10.6762 19.5C10.6706 19.5 10.6651 19.5 10.6595 19.5C10.6539 19.5 10.6483 19.5 10.6427 19.5C10.6372 19.5 10.6316 19.5 10.626 19.5C10.6204 19.5 10.6149 19.5 10.6093 19.5C10.6037 19.5 10.5981 19.5 10.5926 19.5C10.587 19.5 10.5814 19.5 10.5759 19.5C10.5703 19.5 10.5647 19.5 10.5591 19.5C10.5536 19.5 10.548 19.5 10.5424 19.5C10.5369 19.5 10.5313 19.5 10.5257 19.5C10.5202 19.5 10.5146 19.5 10.509 19.5C10.5035 19.5 10.4979 19.5 10.4923 19.5C10.4868 19.5 10.4812 19.5 10.4757 19.5C10.4701 19.5 10.4645 19.5 10.459 19.5C10.4534 19.5 10.4479 19.5 10.4423 19.5C10.4368 19.5 10.4312 19.5 10.4256 19.5C10.4201 19.5 10.4145 19.5 10.409 19.5C10.4034 19.5 10.3979 19.5 10.3923 19.5C10.3868 19.5 10.3812 19.5 10.3757 19.5C10.3701 19.5 10.3646 19.5 10.3591 19.5C10.3535 19.5 10.348 19.5 10.3424 19.5C10.3369 19.5 10.3313 19.5 10.3258 19.5C10.3203 19.5 10.3147 19.5 10.3092 19.5C10.3036 19.5 10.2981 19.5 10.2926 19.5C10.287 19.5 10.2815 19.5 10.276 19.5C10.2704 19.5 10.2649 19.5 10.2594 19.5C10.2538 19.5 10.2483 19.5 10.2428 19.5C10.2373 19.5 10.2317 19.5 10.2262 19.5C10.2207 19.5 10.2152 19.5 10.2097 19.5C10.2041 19.5 10.1986 19.5 10.1931 19.5C10.1876 19.5 10.1821 19.5 10.1765 19.5C10.171 19.5 10.1655 19.5 10.16 19.5C10.1545 19.5 10.149 19.5 10.1435 19.5C10.138 19.5 10.1325 19.5 10.127 19.5C10.1215 19.5 10.116 19.5 10.1105 19.5C10.105 19.5 10.0995 19.5 10.094 19.5C10.0885 19.5 10.083 19.5 10.0775 19.5C10.072 19.5 10.0665 19.5 10.061 19.5C10.0555 19.5 10.05 19.5 10.0445 19.5C10.039 19.5 10.0335 19.5 10.0281 19.5C10.0226 19.5 10.0171 19.5 10.0116 19.5C10.0061 19.5 10.0007 19.5 9.99518 19.5C9.98971 19.5 9.98423 19.5 9.97876 19.5C9.97329 19.5 9.96782 19.5 9.96235 19.5C9.95688 19.5 9.95141 19.5 9.94595 19.5C9.94048 19.5 9.93502 19.5 9.92956 19.5C9.9241 19.5 9.91864 19.5 9.91319 19.5C9.90773 19.5 9.90228 19.5 9.89682 19.5C9.89137 19.5 9.88592 19.5 9.88047 19.5C9.87502 19.5 9.86958 19.5 9.86414 19.5C9.85869 19.5 9.85325 19.5 9.84781 19.5C9.84237 19.5 9.83694 19.5 9.8315 19.5C9.82607 19.5 9.82063 19.5 9.8152 19.5C9.80977 19.5 9.80434 19.5 9.79892 19.5C9.79349 19.5 9.78807 19.5 9.78265 19.5C9.77723 19.5 9.77181 19.5 9.76639 19.5C9.76097 19.5 9.75556 19.5 9.75015 19.5C9.74474 19.5 9.73933 19.5 9.73392 19.5C9.72851 19.5 9.72311 19.5 9.71771 19.5C9.7123 19.5 9.7069 19.5 9.70151 19.5C9.69611 19.5 9.69071 19.5 9.68532 19.5C9.67993 19.5 9.67454 19.5 9.66915 19.5C9.66377 19.5 9.65838 19.5 9.653 19.5C9.64762 19.5 9.64224 19.5 9.63686 19.5C9.63148 19.5 9.62611 19.5 9.62074 19.5C9.61537 19.5 9.61 19.5 9.60463 19.5C9.59927 19.5 9.5939 19.5 9.58854 19.5C9.58318 19.5 9.57782 19.5 9.57247 19.5C9.56711 19.5 9.56176 19.5 9.55641 19.5C9.55106 19.5 9.54571 19.5 9.54037 19.5C9.53502 19.5 9.52968 19.5 9.52434 19.5C9.519 19.5 9.51367 19.5 9.50833 19.5C9.503 19.5 9.49767 19.5 9.49234 19.5C9.48702 19.5 9.48169 19.5 9.47637 19.5C9.47105 19.5 9.46573 19.5 9.46041 19.5C9.4551 19.5 9.44979 19.5 9.44448 19.5C9.43917 19.5 9.43386 19.5 9.42856 19.5C9.42325 19.5 9.41795 19.5 9.41265 19.5C9.40736 19.5 9.40206 19.5 9.39677 19.5C9.39148 19.5 9.38619 19.5 9.38091 19.5C9.37562 19.5 9.37034 19.5 9.36506 19.5C9.35978 19.5 9.3545 19.5 9.34923 19.5C9.34396 19.5 9.33869 19.5 9.33342 19.5C9.32816 19.5 9.32289 19.5 9.31763 19.5C9.31237 19.5 9.30712 19.5 9.30186 19.5C9.29661 19.5 9.29136 19.5 9.28611 19.5C9.28087 19.5 9.27562 19.5 9.27038 19.5C9.26514 19.5 9.2599 19.5 9.25467 19.5C9.24944 19.5 9.24421 19.5 9.23898 19.5C9.23375 19.5 9.22853 19.5 9.22331 19.5C9.21809 19.5 9.21288 19.5 9.20766 19.5C9.20245 19.5 9.19724 19.5 9.19203 19.5C9.18683 19.5 9.18163 19.5 9.17643 19.5C9.17123 19.5 9.16603 19.5 9.16084 19.5C9.15565 19.5 9.15046 19.5 9.14527 19.5C9.14009 19.5 9.13491 19.5 9.12973 19.5C9.12455 19.5 9.11938 19.5 9.11421 19.5C9.10904 19.5 9.10387 19.5 9.09871 19.5C9.09355 19.5 9.08839 19.5 9.08323 19.5C9.07808 19.5 9.07292 19.5 9.06778 19.5C9.06263 19.5 9.05748 19.5 9.05234 19.5C9.0472 19.5 9.04207 19.5 9.03693 19.5C9.0318 19.5 9.02667 19.5 9.02155 19.5C9.01642 19.5 9.0113 19.5 9.00618 19.5C9.00106 19.5 8.99595 19.5 8.99084 19.5C8.98573 19.5 8.98062 19.5 8.97552 19.5C8.97042 19.5 8.96532 19.5 8.96023 19.5C8.95513 19.5 8.95004 19.5 8.94496 19.5C8.93987 19.5 8.93479 19.5 8.92971 19.5C8.92463 19.5 8.91956 19.5 8.91449 19.5C8.90942 19.5 8.90435 19.5 8.89929 19.5C8.89423 19.5 8.88917 19.5 8.88412 19.5C8.87906 19.5 8.87401 19.5 8.86897 19.5C8.86392 19.5 8.85888 19.5 8.85385 19.5C8.84881 19.5 8.84378 19.5 8.83875 19.5C8.83372 19.5 8.82869 19.5 8.82367 19.5C8.81865 19.5 8.81364 19.5 8.80863 19.5C8.80362 19.5 8.79861 19.5 8.79361 19.5C8.7886 19.5 8.7836 19.5 8.77861 19.5C8.77361 19.5 8.76863 19.5 8.76364 19.5C8.75865 19.5 8.75367 19.5 8.7487 19.5C8.74372 19.5 8.73875 19.5 8.73378 19.5C8.72881 19.5 8.72385 19.5 8.71889 19.5C8.71393 19.5 8.70898 19.5 8.70403 19.5C8.69908 19.5 8.69413 19.5 8.68919 19.5C8.68425 19.5 8.67931 19.5 8.67438 19.5C8.66945 19.5 8.66452 19.5 8.6596 19.5C8.65468 19.5 8.64976 19.5 8.64484 19.5C8.63993 19.5 8.63502 19.5 8.63012 19.5C8.62521 19.5 8.62031 19.5 8.61542 19.5C8.61052 19.5 8.60563 19.5 8.60075 19.5C8.59586 19.5 8.59098 19.5 8.58611 19.5C8.58123 19.5 8.57636 19.5 8.57149 19.5C8.56663 19.5 8.56177 19.5 8.55691 19.5C8.55205 19.5 8.5472 19.5 8.54235 19.5C8.53751 19.5 8.53266 19.5 8.52783 19.5C8.52299 19.5 8.51816 19.5 8.51333 19.5C8.5085 19.5 8.50368 19.5 8.49886 19.5C8.49404 19.5 8.48923 19.5 8.48442 19.5C8.47962 19.5 8.47481 19.5 8.47002 19.5C8.46522 19.5 8.46043 19.5 8.45564 19.5C8.45085 19.5 8.44607 19.5 8.44129 19.5C8.43651 19.5 8.43174 19.5 8.42697 19.5C8.42221 19.5 8.41744 19.5 8.41269 19.5C8.40793 19.5 8.40318 19.5 8.39843 19.5C8.39368 19.5 8.38894 19.5 8.38421 19.5C8.37947 19.5 8.37474 19.5 8.37001 19.5C8.36529 19.5 8.36057 19.5 8.35585 19.5C8.35114 19.5 8.34643 19.5 8.34172 19.5C8.33702 19.5 8.33232 19.5 8.32762 19.5C8.32293 19.5 8.31824 19.5 8.31355 19.5C8.30887 19.5 8.30419 19.5 8.29952 19.5C8.29485 19.5 8.29018 19.5 8.28552 19.5C8.28086 19.5 8.2762 19.5 8.27155 19.5C8.2669 19.5 8.26225 19.5 8.25761 19.5C8.25297 19.5 8.24834 19.5 8.24371 19.5C8.23908 19.5 8.23446 19.5 8.22984 19.5C8.22522 19.5 8.22061 19.5 8.216 19.5C8.21139 19.5 8.20679 19.5 8.2022 19.5C8.1976 19.5 8.19301 19.5 8.18843 19.5C8.18384 19.5 8.17926 19.5 8.17469 19.5C8.17012 19.5 8.16555 19.5 8.16099 19.5C8.15642 19.5 8.15187 19.5 8.14732 19.5C8.14277 19.5 8.13822 19.5 8.13368 19.5C8.12915 19.5 8.12461 19.5 8.12009 19.5C8.11556 19.5 8.11104 19.5 8.10652 19.5C8.10201 19.5 8.0975 19.5 8.09299 19.5C8.08849 19.5 8.08399 19.5 8.0795 19.5C8.07501 19.5 8.07052 19.5 8.06604 19.5C8.06156 19.5 8.05709 19.5 8.05262 19.5C8.04815 19.5 8.04369 19.5 8.03923 19.5C8.03477 19.5 8.03032 19.5 8.02588 19.5C8.02143 19.5 8.017 19.5 8.01256 19.5C8.00813 19.5 8.00371 19.5 7.99928 19.5C7.99486 19.5 7.99045 19.5 7.98604 19.5C7.98164 19.5 7.97723 19.5 7.97284 19.5C7.96844 19.5 7.96405 19.5 7.95967 19.5C7.95529 19.5 7.95091 19.5 7.94654 19.5C7.94217 19.5 7.9378 19.5 7.93344 19.5C7.92909 19.5 7.92473 19.5 7.92039 19.5C7.91604 19.5 7.9117 19.5 7.90737 19.5C7.90303 19.5 7.89871 19.5 7.89439 19.5C7.89007 19.5 7.88575 19.5 7.88144 19.5C7.87714 19.5 7.87283 19.5 7.86854 19.5C7.86424 19.5 7.85996 19.5 7.85567 19.5C7.85139 19.5 7.84712 19.5 7.84285 19.5C7.83858 19.5 7.83431 19.5 7.83006 19.5C7.8258 19.5 7.82155 19.5 7.81731 19.5C7.81306 19.5 7.80883 19.5 7.8046 19.5C7.80037 19.5 7.79614 19.5 7.79192 19.5C7.78771 19.5 7.7835 19.5 7.77929 19.5C7.77509 19.5 7.77089 19.5 7.7667 19.5C7.76251 19.5 7.75833 19.5 7.75415 19.5C7.74997 19.5 7.7458 19.5 7.74164 19.5C7.73747 19.5 7.73332 19.5 7.72917 19.5V20.5C7.73332 20.5 7.73747 20.5 7.74164 20.5C7.7458 20.5 7.74997 20.5 7.75415 20.5C7.75833 20.5 7.76251 20.5 7.7667 20.5C7.77089 20.5 7.77509 20.5 7.77929 20.5C7.7835 20.5 7.78771 20.5 7.79192 20.5C7.79614 20.5 7.80037 20.5 7.8046 20.5C7.80883 20.5 7.81306 20.5 7.81731 20.5C7.82155 20.5 7.8258 20.5 7.83006 20.5C7.83431 20.5 7.83858 20.5 7.84285 20.5C7.84712 20.5 7.85139 20.5 7.85567 20.5C7.85996 20.5 7.86424 20.5 7.86854 20.5C7.87283 20.5 7.87714 20.5 7.88144 20.5C7.88575 20.5 7.89007 20.5 7.89439 20.5C7.89871 20.5 7.90303 20.5 7.90737 20.5C7.9117 20.5 7.91604 20.5 7.92039 20.5C7.92473 20.5 7.92909 20.5 7.93344 20.5C7.9378 20.5 7.94217 20.5 7.94654 20.5C7.95091 20.5 7.95529 20.5 7.95967 20.5C7.96405 20.5 7.96844 20.5 7.97284 20.5C7.97723 20.5 7.98164 20.5 7.98604 20.5C7.99045 20.5 7.99486 20.5 7.99928 20.5C8.00371 20.5 8.00813 20.5 8.01256 20.5C8.017 20.5 8.02143 20.5 8.02588 20.5C8.03032 20.5 8.03477 20.5 8.03923 20.5C8.04369 20.5 8.04815 20.5 8.05262 20.5C8.05709 20.5 8.06156 20.5 8.06604 20.5C8.07052 20.5 8.07501 20.5 8.0795 20.5C8.08399 20.5 8.08849 20.5 8.09299 20.5C8.0975 20.5 8.10201 20.5 8.10652 20.5C8.11104 20.5 8.11556 20.5 8.12009 20.5C8.12461 20.5 8.12915 20.5 8.13368 20.5C8.13822 20.5 8.14277 20.5 8.14732 20.5C8.15187 20.5 8.15642 20.5 8.16099 20.5C8.16555 20.5 8.17012 20.5 8.17469 20.5C8.17926 20.5 8.18384 20.5 8.18843 20.5C8.19301 20.5 8.1976 20.5 8.2022 20.5C8.20679 20.5 8.21139 20.5 8.216 20.5C8.22061 20.5 8.22522 20.5 8.22984 20.5C8.23446 20.5 8.23908 20.5 8.24371 20.5C8.24834 20.5 8.25297 20.5 8.25761 20.5C8.26225 20.5 8.2669 20.5 8.27155 20.5C8.2762 20.5 8.28086 20.5 8.28552 20.5C8.29018 20.5 8.29485 20.5 8.29952 20.5C8.30419 20.5 8.30887 20.5 8.31355 20.5C8.31824 20.5 8.32293 20.5 8.32762 20.5C8.33232 20.5 8.33702 20.5 8.34172 20.5C8.34643 20.5 8.35114 20.5 8.35585 20.5C8.36057 20.5 8.36529 20.5 8.37001 20.5C8.37474 20.5 8.37947 20.5 8.38421 20.5C8.38894 20.5 8.39368 20.5 8.39843 20.5C8.40318 20.5 8.40793 20.5 8.41269 20.5C8.41744 20.5 8.42221 20.5 8.42697 20.5C8.43174 20.5 8.43651 20.5 8.44129 20.5C8.44607 20.5 8.45085 20.5 8.45564 20.5C8.46043 20.5 8.46522 20.5 8.47002 20.5C8.47481 20.5 8.47962 20.5 8.48442 20.5C8.48923 20.5 8.49404 20.5 8.49886 20.5C8.50368 20.5 8.5085 20.5 8.51333 20.5C8.51816 20.5 8.52299 20.5 8.52783 20.5C8.53266 20.5 8.53751 20.5 8.54235 20.5C8.5472 20.5 8.55205 20.5 8.55691 20.5C8.56177 20.5 8.56663 20.5 8.57149 20.5C8.57636 20.5 8.58123 20.5 8.58611 20.5C8.59098 20.5 8.59586 20.5 8.60075 20.5C8.60563 20.5 8.61052 20.5 8.61542 20.5C8.62031 20.5 8.62521 20.5 8.63012 20.5C8.63502 20.5 8.63993 20.5 8.64484 20.5C8.64976 20.5 8.65468 20.5 8.6596 20.5C8.66452 20.5 8.66945 20.5 8.67438 20.5C8.67931 20.5 8.68425 20.5 8.68919 20.5C8.69413 20.5 8.69908 20.5 8.70403 20.5C8.70898 20.5 8.71393 20.5 8.71889 20.5C8.72385 20.5 8.72881 20.5 8.73378 20.5C8.73875 20.5 8.74372 20.5 8.7487 20.5C8.75367 20.5 8.75865 20.5 8.76364 20.5C8.76863 20.5 8.77361 20.5 8.77861 20.5C8.7836 20.5 8.7886 20.5 8.79361 20.5C8.79861 20.5 8.80362 20.5 8.80863 20.5C8.81364 20.5 8.81865 20.5 8.82367 20.5C8.82869 20.5 8.83372 20.5 8.83875 20.5C8.84378 20.5 8.84881 20.5 8.85385 20.5C8.85888 20.5 8.86392 20.5 8.86897 20.5C8.87401 20.5 8.87906 20.5 8.88412 20.5C8.88917 20.5 8.89423 20.5 8.89929 20.5C8.90435 20.5 8.90942 20.5 8.91449 20.5C8.91956 20.5 8.92463 20.5 8.92971 20.5C8.93479 20.5 8.93987 20.5 8.94496 20.5C8.95004 20.5 8.95513 20.5 8.96023 20.5C8.96532 20.5 8.97042 20.5 8.97552 20.5C8.98062 20.5 8.98573 20.5 8.99084 20.5C8.99595 20.5 9.00106 20.5 9.00618 20.5C9.0113 20.5 9.01642 20.5 9.02155 20.5C9.02667 20.5 9.0318 20.5 9.03693 20.5C9.04207 20.5 9.0472 20.5 9.05234 20.5C9.05748 20.5 9.06263 20.5 9.06778 20.5C9.07292 20.5 9.07808 20.5 9.08323 20.5C9.08839 20.5 9.09355 20.5 9.09871 20.5C9.10387 20.5 9.10904 20.5 9.11421 20.5C9.11938 20.5 9.12455 20.5 9.12973 20.5C9.13491 20.5 9.14009 20.5 9.14527 20.5C9.15046 20.5 9.15565 20.5 9.16084 20.5C9.16603 20.5 9.17123 20.5 9.17643 20.5C9.18163 20.5 9.18683 20.5 9.19203 20.5C9.19724 20.5 9.20245 20.5 9.20766 20.5C9.21288 20.5 9.21809 20.5 9.22331 20.5C9.22853 20.5 9.23375 20.5 9.23898 20.5C9.24421 20.5 9.24944 20.5 9.25467 20.5C9.2599 20.5 9.26514 20.5 9.27038 20.5C9.27562 20.5 9.28087 20.5 9.28611 20.5C9.29136 20.5 9.29661 20.5 9.30186 20.5C9.30712 20.5 9.31237 20.5 9.31763 20.5C9.32289 20.5 9.32816 20.5 9.33342 20.5C9.33869 20.5 9.34396 20.5 9.34923 20.5C9.3545 20.5 9.35978 20.5 9.36506 20.5C9.37034 20.5 9.37562 20.5 9.38091 20.5C9.38619 20.5 9.39148 20.5 9.39677 20.5C9.40206 20.5 9.40736 20.5 9.41265 20.5C9.41795 20.5 9.42325 20.5 9.42856 20.5C9.43386 20.5 9.43917 20.5 9.44448 20.5C9.44979 20.5 9.4551 20.5 9.46041 20.5C9.46573 20.5 9.47105 20.5 9.47637 20.5C9.48169 20.5 9.48702 20.5 9.49234 20.5C9.49767 20.5 9.503 20.5 9.50833 20.5C9.51367 20.5 9.519 20.5 9.52434 20.5C9.52968 20.5 9.53502 20.5 9.54037 20.5C9.54571 20.5 9.55106 20.5 9.55641 20.5C9.56176 20.5 9.56711 20.5 9.57247 20.5C9.57782 20.5 9.58318 20.5 9.58854 20.5C9.5939 20.5 9.59927 20.5 9.60463 20.5C9.61 20.5 9.61537 20.5 9.62074 20.5C9.62611 20.5 9.63148 20.5 9.63686 20.5C9.64224 20.5 9.64762 20.5 9.653 20.5C9.65838 20.5 9.66377 20.5 9.66915 20.5C9.67454 20.5 9.67993 20.5 9.68532 20.5C9.69071 20.5 9.69611 20.5 9.70151 20.5C9.7069 20.5 9.7123 20.5 9.71771 20.5C9.72311 20.5 9.72851 20.5 9.73392 20.5C9.73933 20.5 9.74474 20.5 9.75015 20.5C9.75556 20.5 9.76097 20.5 9.76639 20.5C9.77181 20.5 9.77723 20.5 9.78265 20.5C9.78807 20.5 9.79349 20.5 9.79892 20.5C9.80434 20.5 9.80977 20.5 9.8152 20.5C9.82063 20.5 9.82607 20.5 9.8315 20.5C9.83694 20.5 9.84237 20.5 9.84781 20.5C9.85325 20.5 9.85869 20.5 9.86414 20.5C9.86958 20.5 9.87502 20.5 9.88047 20.5C9.88592 20.5 9.89137 20.5 9.89682 20.5C9.90228 20.5 9.90773 20.5 9.91319 20.5C9.91864 20.5 9.9241 20.5 9.92956 20.5C9.93502 20.5 9.94048 20.5 9.94595 20.5C9.95141 20.5 9.95688 20.5 9.96235 20.5C9.96782 20.5 9.97329 20.5 9.97876 20.5C9.98423 20.5 9.98971 20.5 9.99518 20.5C10.0007 20.5 10.0061 20.5 10.0116 20.5C10.0171 20.5 10.0226 20.5 10.0281 20.5C10.0335 20.5 10.039 20.5 10.0445 20.5C10.05 20.5 10.0555 20.5 10.061 20.5C10.0665 20.5 10.072 20.5 10.0775 20.5C10.083 20.5 10.0885 20.5 10.094 20.5C10.0995 20.5 10.105 20.5 10.1105 20.5C10.116 20.5 10.1215 20.5 10.127 20.5C10.1325 20.5 10.138 20.5 10.1435 20.5C10.149 20.5 10.1545 20.5 10.16 20.5C10.1655 20.5 10.171 20.5 10.1765 20.5C10.1821 20.5 10.1876 20.5 10.1931 20.5C10.1986 20.5 10.2041 20.5 10.2097 20.5C10.2152 20.5 10.2207 20.5 10.2262 20.5C10.2317 20.5 10.2373 20.5 10.2428 20.5C10.2483 20.5 10.2538 20.5 10.2594 20.5C10.2649 20.5 10.2704 20.5 10.276 20.5C10.2815 20.5 10.287 20.5 10.2926 20.5C10.2981 20.5 10.3036 20.5 10.3092 20.5C10.3147 20.5 10.3203 20.5 10.3258 20.5C10.3313 20.5 10.3369 20.5 10.3424 20.5C10.348 20.5 10.3535 20.5 10.3591 20.5C10.3646 20.5 10.3701 20.5 10.3757 20.5C10.3812 20.5 10.3868 20.5 10.3923 20.5C10.3979 20.5 10.4034 20.5 10.409 20.5C10.4145 20.5 10.4201 20.5 10.4256 20.5C10.4312 20.5 10.4368 20.5 10.4423 20.5C10.4479 20.5 10.4534 20.5 10.459 20.5C10.4645 20.5 10.4701 20.5 10.4757 20.5C10.4812 20.5 10.4868 20.5 10.4923 20.5C10.4979 20.5 10.5035 20.5 10.509 20.5C10.5146 20.5 10.5202 20.5 10.5257 20.5C10.5313 20.5 10.5369 20.5 10.5424 20.5C10.548 20.5 10.5536 20.5 10.5591 20.5C10.5647 20.5 10.5703 20.5 10.5759 20.5C10.5814 20.5 10.587 20.5 10.5926 20.5C10.5981 20.5 10.6037 20.5 10.6093 20.5C10.6149 20.5 10.6204 20.5 10.626 20.5C10.6316 20.5 10.6372 20.5 10.6427 20.5C10.6483 20.5 10.6539 20.5 10.6595 20.5C10.6651 20.5 10.6706 20.5 10.6762 20.5C10.6818 20.5 10.6874 20.5 10.693 20.5C10.6985 20.5 10.7041 20.5 10.7097 20.5C10.7153 20.5 10.7209 20.5 10.7264 20.5C10.732 20.5 10.7376 20.5 10.7432 20.5C10.7488 20.5 10.7544 20.5 10.7599 20.5C10.7655 20.5 10.7711 20.5 10.7767 20.5C10.7823 20.5 10.7879 20.5 10.7935 20.5C10.799 20.5 10.8046 20.5 10.8102 20.5C10.8158 20.5 10.8214 20.5 10.827 20.5C10.8326 20.5 10.8382 20.5 10.8438 20.5C10.8493 20.5 10.8549 20.5 10.8605 20.5C10.8661 20.5 10.8717 20.5 10.8773 20.5C10.8829 20.5 10.8885 20.5 10.8941 20.5C10.8996 20.5 10.9052 20.5 10.9108 20.5C10.9164 20.5 10.922 20.5 10.9276 20.5C10.9332 20.5 10.9388 20.5 10.9444 20.5C10.95 20.5 10.9556 20.5 10.9611 20.5C10.9667 20.5 10.9723 20.5 10.9779 20.5C10.9835 20.5 10.9891 20.5 10.9947 20.5C11.0003 20.5 11.0059 20.5 11.0115 20.5C11.0171 20.5 11.0227 20.5 11.0282 20.5C11.0338 20.5 11.0394 20.5 11.045 20.5C11.0506 20.5 11.0562 20.5 11.0618 20.5C11.0674 20.5 11.073 20.5 11.0786 20.5C11.0842 20.5 11.0897 20.5 11.0953 20.5C11.1009 20.5 11.1065 20.5 11.1121 20.5C11.1177 20.5 11.1233 20.5 11.1289 20.5C11.1345 20.5 11.1401 20.5 11.1456 20.5C11.1512 20.5 11.1568 20.5 11.1624 20.5C11.168 20.5 11.1736 20.5 11.1792 20.5C11.1848 20.5 11.1904 20.5 11.1959 20.5C11.2015 20.5 11.2071 20.5 11.2127 20.5C11.2183 20.5 11.2239 20.5 11.2295 20.5C11.235 20.5 11.2406 20.5 11.2462 20.5C11.2518 20.5 11.2574 20.5 11.263 20.5C11.2686 20.5 11.2741 20.5 11.2797 20.5C11.2853 20.5 11.2909 20.5 11.2965 20.5C11.302 20.5 11.3076 20.5 11.3132 20.5C11.3188 20.5 11.3244 20.5 11.3299 20.5C11.3355 20.5 11.3411 20.5 11.3467 20.5C11.3523 20.5 11.3578 20.5 11.3634 20.5C11.369 20.5 11.3746 20.5 11.3801 20.5C11.3857 20.5 11.3913 20.5 11.3969 20.5C11.4024 20.5 11.408 20.5 11.4136 20.5C11.4192 20.5 11.4247 20.5 11.4303 20.5C11.4359 20.5 11.4414 20.5 11.447 20.5C11.4526 20.5 11.4581 20.5 11.4637 20.5C11.4693 20.5 11.4748 20.5 11.4804 20.5C11.486 20.5 11.4915 20.5 11.4971 20.5C11.5027 20.5 11.5082 20.5 11.5138 20.5C11.5194 20.5 11.5249 20.5 11.5305 20.5C11.536 20.5 11.5416 20.5 11.5472 20.5C11.5527 20.5 11.5583 20.5 11.5638 20.5C11.5694 20.5 11.5749 20.5 11.5805 20.5C11.586 20.5 11.5916 20.5 11.5971 20.5C11.6027 20.5 11.6082 20.5 11.6138 20.5C11.6193 20.5 11.6249 20.5 11.6304 20.5C11.636 20.5 11.6415 20.5 11.6471 20.5C11.6526 20.5 11.6582 20.5 11.6637 20.5C11.6692 20.5 11.6748 20.5 11.6803 20.5C11.6859 20.5 11.6914 20.5 11.6969 20.5C11.7025 20.5 11.708 20.5 11.7135 20.5C11.7191 20.5 11.7246 20.5 11.7301 20.5C11.7357 20.5 11.7412 20.5 11.7467 20.5C11.7523 20.5 11.7578 20.5 11.7633 20.5C11.7688 20.5 11.7744 20.5 11.7799 20.5C11.7854 20.5 11.7909 20.5 11.7964 20.5C11.802 20.5 11.8075 20.5 11.813 20.5C11.8185 20.5 11.824 20.5 11.8295 20.5C11.8351 20.5 11.8406 20.5 11.8461 20.5C11.8516 20.5 11.8571 20.5 11.8626 20.5C11.8681 20.5 11.8736 20.5 11.8791 20.5C11.8846 20.5 11.8901 20.5 11.8956 20.5C11.9011 20.5 11.9066 20.5 11.9121 20.5C11.9176 20.5 11.9231 20.5 11.9286 20.5C11.9341 20.5 11.9396 20.5 11.9451 20.5C11.9506 20.5 11.9561 20.5 11.9615 20.5C11.967 20.5 11.9725 20.5 11.978 20.5C11.9835 20.5 11.989 20.5 11.9944 20.5C11.9999 20.5 12.0054 20.5 12.0109 20.5C12.0163 20.5 12.0218 20.5 12.0273 20.5C12.0328 20.5 12.0382 20.5 12.0437 20.5C12.0492 20.5 12.0546 20.5 12.0601 20.5C12.0656 20.5 12.071 20.5 12.0765 20.5C12.0819 20.5 12.0874 20.5 12.0928 20.5C12.0983 20.5 12.1038 20.5 12.1092 20.5C12.1147 20.5 12.1201 20.5 12.1256 20.5C12.131 20.5 12.1364 20.5 12.1419 20.5C12.1473 20.5 12.1528 20.5 12.1582 20.5C12.1636 20.5 12.1691 20.5 12.1745 20.5C12.1799 20.5 12.1854 20.5 12.1908 20.5C12.1962 20.5 12.2017 20.5 12.2071 20.5C12.2125 20.5 12.2179 20.5 12.2234 20.5C12.2288 20.5 12.2342 20.5 12.2396 20.5C12.245 20.5 12.2504 20.5 12.2558 20.5C12.2613 20.5 12.2667 20.5 12.2721 20.5C12.2775 20.5 12.2829 20.5 12.2883 20.5C12.2937 20.5 12.2991 20.5 12.3045 20.5C12.3099 20.5 12.3153 20.5 12.3206 20.5C12.326 20.5 12.3314 20.5 12.3368 20.5C12.3422 20.5 12.3476 20.5 12.353 20.5C12.3583 20.5 12.3637 20.5 12.3691 20.5C12.3745 20.5 12.3798 20.5 12.3852 20.5C12.3906 20.5 12.3959 20.5 12.4013 20.5C12.4067 20.5 12.412 20.5 12.4174 20.5C12.4228 20.5 12.4281 20.5 12.4335 20.5C12.4388 20.5 12.4442 20.5 12.4495 20.5C12.4549 20.5 12.4602 20.5 12.4656 20.5C12.4709 20.5 12.4762 20.5 12.4816 20.5C12.4869 20.5 12.4922 20.5 12.4976 20.5C12.5029 20.5 12.5082 20.5 12.5136 20.5C12.5189 20.5 12.5242 20.5 12.5295 20.5C12.5348 20.5 12.5402 20.5 12.5455 20.5C12.5508 20.5 12.5561 20.5 12.5614 20.5C12.5667 20.5 12.572 20.5 12.5773 20.5C12.5826 20.5 12.5879 20.5 12.5932 20.5C12.5985 20.5 12.6038 20.5 12.6091 20.5C12.6144 20.5 12.6197 20.5 12.625 20.5C12.6302 20.5 12.6355 20.5 12.6408 20.5C12.6461 20.5 12.6513 20.5 12.6566 20.5C12.6619 20.5 12.6672 20.5 12.6724 20.5C12.6777 20.5 12.6829 20.5 12.6882 20.5C12.6935 20.5 12.6987 20.5 12.704 20.5C12.7092 20.5 12.7145 20.5 12.7197 20.5C12.725 20.5 12.7302 20.5 12.7354 20.5C12.7407 20.5 12.7459 20.5 12.7511 20.5C12.7564 20.5 12.7616 20.5 12.7668 20.5C12.772 20.5 12.7773 20.5 12.7825 20.5C12.7877 20.5 12.7929 20.5 12.7981 20.5C12.8033 20.5 12.8085 20.5 12.8137 20.5C12.819 20.5 12.8242 20.5 12.8294 20.5C12.8345 20.5 12.8397 20.5 12.8449 20.5C12.8501 20.5 12.8553 20.5 12.8605 20.5C12.8657 20.5 12.8708 20.5 12.876 20.5C12.8812 20.5 12.8864 20.5 12.8915 20.5C12.8967 20.5 12.9019 20.5 12.907 20.5C12.9122 20.5 12.9173 20.5 12.9225 20.5C12.9277 20.5 12.9328 20.5 12.9379 20.5C12.9431 20.5 12.9482 20.5 12.9534 20.5C12.9585 20.5 12.9636 20.5 12.9688 20.5C12.9739 20.5 12.979 20.5 12.9842 20.5C12.9893 20.5 12.9944 20.5 12.9995 20.5C13.0046 20.5 13.0097 20.5 13.0148 20.5C13.02 20.5 13.0251 20.5 13.0302 20.5C13.0353 20.5 13.0404 20.5 13.0454 20.5C13.0505 20.5 13.0556 20.5 13.0607 20.5C13.0658 20.5 13.0709 20.5 13.0759 20.5C13.081 20.5 13.0861 20.5 13.0912 20.5C13.0962 20.5 13.1013 20.5 13.1063 20.5C13.1114 20.5 13.1165 20.5 13.1215 20.5C13.1266 20.5 13.1316 20.5 13.1367 20.5C13.1417 20.5 13.1467 20.5 13.1518 20.5C13.1568 20.5 13.1618 20.5 13.1669 20.5C13.1719 20.5 13.1769 20.5 13.1819 20.5C13.1869 20.5 13.192 20.5 13.197 20.5C13.202 20.5 13.207 20.5 13.212 20.5C13.217 20.5 13.222 20.5 13.227 20.5C13.232 20.5 13.2369 20.5 13.2419 20.5C13.2469 20.5 13.2519 20.5 13.2569 20.5C13.2618 20.5 13.2668 20.5 13.2718 20.5C13.2767 20.5 13.2817 20.5 13.2866 20.5C13.2916 20.5 13.2966 20.5 13.3015 20.5C13.3064 20.5 13.3114 20.5 13.3163 20.5C13.3213 20.5 13.3262 20.5 13.3311 20.5C13.3361 20.5 13.341 20.5 13.3459 20.5C13.3508 20.5 13.3557 20.5 13.3606 20.5C13.3656 20.5 13.3705 20.5 13.3754 20.5C13.3803 20.5 13.3852 20.5 13.3901 20.5C13.3949 20.5 13.3998 20.5 13.4047 20.5C13.4096 20.5 13.4145 20.5 13.4193 20.5C13.4242 20.5 13.4291 20.5 13.4339 20.5C13.4388 20.5 13.4437 20.5 13.4485 20.5C13.4534 20.5 13.4582 20.5 13.4631 20.5C13.4679 20.5 13.4728 20.5 13.4776 20.5C13.4824 20.5 13.4873 20.5 13.4921 20.5C13.4969 20.5 13.5017 20.5 13.5065 20.5C13.5113 20.5 13.5162 20.5 13.521 20.5C13.5258 20.5 13.5306 20.5 13.5354 20.5C13.5402 20.5 13.5449 20.5 13.5497 20.5C13.5545 20.5 13.5593 20.5 13.5641 20.5C13.5688 20.5 13.5736 20.5 13.5784 20.5C13.5831 20.5 13.5879 20.5 13.5926 20.5C13.5974 20.5 13.6021 20.5 13.6069 20.5C13.6116 20.5 13.6164 20.5 13.6211 20.5C13.6258 20.5 13.6306 20.5 13.6353 20.5C13.64 20.5 13.6447 20.5 13.6494 20.5C13.6542 20.5 13.6589 20.5 13.6636 20.5C13.6683 20.5 13.673 20.5 13.6776 20.5C13.6823 20.5 13.687 20.5 13.6917 20.5C13.6964 20.5 13.7011 20.5 13.7057 20.5C13.7104 20.5 13.7151 20.5 13.7197 20.5C13.7244 20.5 13.729 20.5 13.7337 20.5C13.7383 20.5 13.743 20.5 13.7476 20.5C13.7522 20.5 13.7569 20.5 13.7615 20.5C13.7661 20.5 13.7707 20.5 13.7754 20.5C13.78 20.5 13.7846 20.5 13.7892 20.5C13.7938 20.5 13.7984 20.5 13.803 20.5C13.8076 20.5 13.8122 20.5 13.8167 20.5C13.8213 20.5 13.8259 20.5 13.8305 20.5C13.835 20.5 13.8396 20.5 13.8442 20.5C13.8487 20.5 13.8533 20.5 13.8578 20.5C13.8624 20.5 13.8669 20.5 13.8714 20.5C13.876 20.5 13.8805 20.5 13.885 20.5C13.8895 20.5 13.8941 20.5 13.8986 20.5C13.9031 20.5 13.9076 20.5 13.9121 20.5C13.9166 20.5 13.9211 20.5 13.9256 20.5C13.9301 20.5 13.9345 20.5 13.939 20.5C13.9435 20.5 13.948 20.5 13.9524 20.5C13.9569 20.5 13.9614 20.5 13.9658 20.5C13.9703 20.5 13.9747 20.5 13.9791 20.5C13.9836 20.5 13.988 20.5 13.9924 20.5C13.9969 20.5 14.0013 20.5 14.0057 20.5C14.0101 20.5 14.0145 20.5 14.0189 20.5C14.0233 20.5 14.0277 20.5 14.0321 20.5C14.0365 20.5 14.0409 20.5 14.0453 20.5C14.0497 20.5 14.054 20.5 14.0584 20.5C14.0628 20.5 14.0671 20.5 14.0715 20.5C14.0758 20.5 14.0802 20.5 14.0845 20.5C14.0889 20.5 14.0932 20.5 14.0975 20.5C14.1019 20.5 14.1062 20.5 14.1105 20.5C14.1148 20.5 14.1191 20.5 14.1234 20.5C14.1277 20.5 14.132 20.5 14.1363 20.5C14.1406 20.5 14.1449 20.5 14.1492 20.5C14.1535 20.5 14.1577 20.5 14.162 20.5C14.1663 20.5 14.1705 20.5 14.1748 20.5C14.179 20.5 14.1833 20.5 14.1875 20.5C14.1918 20.5 14.196 20.5 14.2002 20.5C14.2044 20.5 14.2087 20.5 14.2129 20.5C14.2171 20.5 14.2213 20.5 14.2255 20.5C14.2297 20.5 14.2339 20.5 14.2381 20.5C14.2423 20.5 14.2464 20.5 14.2506 20.5C14.2548 20.5 14.2589 20.5 14.2631 20.5C14.2673 20.5 14.2714 20.5 14.2756 20.5C14.2797 20.5 14.2838 20.5 14.288 20.5C14.2921 20.5 14.2962 20.5 14.3004 20.5C14.3045 20.5 14.3086 20.5 14.3127 20.5C14.3168 20.5 14.3209 20.5 14.325 20.5C14.3291 20.5 14.3332 20.5 14.3372 20.5C14.3413 20.5 14.3454 20.5 14.3494 20.5C14.3535 20.5 14.3576 20.5 14.3616 20.5C14.3657 20.5 14.3697 20.5 14.3737 20.5C14.3778 20.5 14.3818 20.5 14.3858 20.5C14.3899 20.5 14.3939 20.5 14.3979 20.5C14.4019 20.5 14.4059 20.5 14.4099 20.5C14.4139 20.5 14.4179 20.5 14.4218 20.5C14.4258 20.5 14.4298 20.5 14.4337 20.5C14.4377 20.5 14.4417 20.5 14.4456 20.5C14.4496 20.5 14.4535 20.5 14.4575 20.5C14.4614 20.5 14.4653 20.5 14.4692 20.5C14.4732 20.5 14.4771 20.5 14.481 20.5C14.4849 20.5 14.4888 20.5 14.4927 20.5C14.4966 20.5 14.5005 20.5 14.5043 20.5C14.5082 20.5 14.5121 20.5 14.5159 20.5C14.5198 20.5 14.5237 20.5 14.5275 20.5C14.5314 20.5 14.5352 20.5 14.539 20.5C14.5429 20.5 14.5467 20.5 14.5505 20.5C14.5543 20.5 14.5581 20.5 14.5619 20.5C14.5657 20.5 14.5695 20.5 14.5733 20.5C14.5771 20.5 14.5809 20.5 14.5847 20.5C14.5884 20.5 14.5922 20.5 14.596 20.5C14.5997 20.5 14.6035 20.5 14.6072 20.5C14.6109 20.5 14.6147 20.5 14.6184 20.5C14.6221 20.5 14.6259 20.5 14.6296 20.5C14.6333 20.5 14.637 20.5 14.6407 20.5C14.6444 20.5 14.6481 20.5 14.6517 20.5C14.6554 20.5 14.6591 20.5 14.6628 20.5C14.6664 20.5 14.6701 20.5 14.6737 20.5C14.6774 20.5 14.681 20.5 14.6847 20.5C14.6883 20.5 14.6919 20.5 14.6955 20.5C14.6992 20.5 14.7028 20.5 14.7064 20.5C14.71 20.5 14.7136 20.5 14.7171 20.5C14.7207 20.5 14.7243 20.5 14.7279 20.5C14.7314 20.5 14.735 20.5 14.7386 20.5C14.7421 20.5 14.7457 20.5 14.7492 20.5C14.7527 20.5 14.7563 20.5 14.7598 20.5C14.7633 20.5 14.7668 20.5 14.7703 20.5C14.7738 20.5 14.7773 20.5 14.7808 20.5C14.7843 20.5 14.7878 20.5 14.7913 20.5C14.7947 20.5 14.7982 20.5 14.8017 20.5C14.8051 20.5 14.8086 20.5 14.812 20.5C14.8154 20.5 14.8189 20.5 14.8223 20.5C14.8257 20.5 14.8291 20.5 14.8325 20.5C14.836 20.5 14.8394 20.5 14.8427 20.5C14.8461 20.5 14.8495 20.5 14.8529 20.5C14.8563 20.5 14.8596 20.5 14.863 20.5C14.8663 20.5 14.8697 20.5 14.873 20.5C14.8764 20.5 14.8797 20.5 14.883 20.5C14.8863 20.5 14.8897 20.5 14.893 20.5C14.8963 20.5 14.8996 20.5 14.9029 20.5C14.9061 20.5 14.9094 20.5 14.9127 20.5C14.916 20.5 14.9192 20.5 14.9225 20.5C14.9257 20.5 14.929 20.5 14.9322 20.5C14.9355 20.5 14.9387 20.5 14.9419 20.5C14.9451 20.5 14.9483 20.5 14.9515 20.5C14.9547 20.5 14.9579 20.5 14.9611 20.5C14.9643 20.5 14.9675 20.5 14.9707 20.5C14.9738 20.5 14.977 20.5 14.9801 20.5C14.9833 20.5 14.9864 20.5 14.9896 20.5C14.9927 20.5 14.9958 20.5 14.9989 20.5C15.002 20.5 15.0051 20.5 15.0082 20.5C15.0113 20.5 15.0144 20.5 15.0175 20.5C15.0206 20.5 15.0237 20.5 15.0267 20.5C15.0298 20.5 15.0328 20.5 15.0359 20.5C15.0389 20.5 15.042 20.5 15.045 20.5C15.048 20.5 15.051 20.5 15.054 20.5C15.057 20.5 15.06 20.5 15.063 20.5C15.066 20.5 15.069 20.5 15.072 20.5C15.0749 20.5 15.0779 20.5 15.0809 20.5C15.0838 20.5 15.0868 20.5 15.0897 20.5C15.0926 20.5 15.0955 20.5 15.0985 20.5C15.1014 20.5 15.1043 20.5 15.1072 20.5C15.1101 20.5 15.113 20.5 15.1158 20.5C15.1187 20.5 15.1216 20.5 15.1245 20.5C15.1273 20.5 15.1302 20.5 15.133 20.5C15.1359 20.5 15.1387 20.5 15.1415 20.5C15.1443 20.5 15.1471 20.5 15.15 20.5C15.1528 20.5 15.1556 20.5 15.1583 20.5C15.1611 20.5 15.1639 20.5 15.1667 20.5V19.5ZM7.72917 20C8.16557 19.756 8.16546 19.7558 8.16536 19.7556C8.16532 19.7555 8.16522 19.7553 8.16514 19.7552C8.16499 19.7549 8.16484 19.7547 8.16468 19.7544C8.16436 19.7538 8.16402 19.7532 8.16365 19.7526C8.16292 19.7513 8.16209 19.7498 8.16116 19.7482C8.15931 19.745 8.15706 19.7412 8.15443 19.7367C8.14916 19.7279 8.14231 19.7167 8.13387 19.7035C8.11703 19.6772 8.09364 19.6425 8.0636 19.6022C8.00401 19.5222 7.91551 19.4167 7.79681 19.3106C7.5598 19.0987 7.18058 18.8667 6.66667 18.8667V19.8667C6.86109 19.8667 7.01312 19.9513 7.13027 20.0561C7.18865 20.1083 7.23297 20.1611 7.26192 20.1999C7.27615 20.219 7.28596 20.2338 7.29126 20.242C7.29389 20.2462 7.29534 20.2486 7.29561 20.249C7.29574 20.2492 7.29557 20.249 7.2951 20.2481C7.29486 20.2477 7.29455 20.2472 7.29416 20.2465C7.29397 20.2462 7.29375 20.2458 7.29352 20.2454C7.29341 20.2452 7.29328 20.245 7.29316 20.2447C7.2931 20.2446 7.293 20.2445 7.29297 20.2444C7.29287 20.2442 7.29277 20.244 7.72917 20ZM6.66667 18.8667C6.17776 18.8667 5.7294 19.0794 5.4367 19.2538C5.28357 19.3451 5.15668 19.4359 5.0676 19.5042C5.02282 19.5385 4.98697 19.5676 4.96146 19.5889C4.94869 19.5996 4.93847 19.6083 4.93096 19.6148C4.92721 19.618 4.92413 19.6207 4.92176 19.6228C4.92057 19.6239 4.91955 19.6248 4.91871 19.6255C4.91829 19.6259 4.91792 19.6262 4.91759 19.6265C4.91742 19.6266 4.91727 19.6268 4.91713 19.6269C4.91705 19.627 4.91696 19.6271 4.91692 19.6271C4.91682 19.6272 4.91673 19.6273 5.25 20C5.58327 20.3727 5.58318 20.3728 5.5831 20.3729C5.58307 20.3729 5.58299 20.373 5.58294 20.373C5.58284 20.3731 5.58275 20.3732 5.58267 20.3733C5.58251 20.3734 5.5824 20.3735 5.58232 20.3736C5.58217 20.3737 5.58218 20.3737 5.58235 20.3736C5.5827 20.3732 5.58368 20.3724 5.58529 20.371C5.58851 20.3682 5.5942 20.3633 5.60218 20.3567C5.61817 20.3433 5.64319 20.323 5.67589 20.2979C5.74176 20.2474 5.83622 20.1799 5.94872 20.1128C6.18727 19.9706 6.44724 19.8667 6.66667 19.8667V18.8667ZM5.25 19.5H1V20.5H5.25V19.5ZM1.5 20V9.07873H0.5V20H1.5ZM4.75 9.07873V20H5.75V9.07873H4.75ZM16.2292 14.1753C16.1285 14.665 16.1283 14.665 16.1282 14.665C16.1282 14.665 16.1281 14.665 16.128 14.6649C16.1279 14.6649 16.1277 14.6649 16.1277 14.6649C16.1275 14.6648 16.1274 14.6648 16.1275 14.6648C16.1275 14.6649 16.128 14.665 16.1289 14.6651C16.1307 14.6655 16.134 14.6662 16.1388 14.6673C16.1484 14.6695 16.1638 14.6731 16.1842 14.6782C16.225 14.6884 16.2854 14.7045 16.3585 14.727C16.5066 14.7727 16.6987 14.8422 16.886 14.9385C17.3014 15.152 17.5 15.3898 17.5 15.6315H18.5C18.5 14.781 17.8132 14.2907 17.3431 14.0491C17.0878 13.9179 16.8371 13.8282 16.6532 13.7714C16.5603 13.7428 16.4823 13.7219 16.4264 13.7079C16.3983 13.701 16.3757 13.6957 16.3593 13.692C16.3512 13.6901 16.3445 13.6887 16.3396 13.6876C16.3371 13.6871 16.3351 13.6866 16.3334 13.6863C16.3326 13.6861 16.3319 13.686 16.3313 13.6858C16.331 13.6858 16.3307 13.6857 16.3305 13.6857C16.3304 13.6856 16.3302 13.6856 16.3302 13.6856C16.33 13.6856 16.3299 13.6855 16.2292 14.1753ZM17.5 15.6315C17.5 15.8731 17.3014 16.1109 16.886 16.3244C16.6987 16.4207 16.5066 16.4902 16.3585 16.5359C16.2854 16.5585 16.225 16.5746 16.1842 16.5848C16.1638 16.5898 16.1484 16.5934 16.1388 16.5956C16.134 16.5967 16.1307 16.5974 16.1289 16.5978C16.128 16.598 16.1275 16.5981 16.1275 16.5981C16.1274 16.5981 16.1275 16.5981 16.1277 16.5981C16.1277 16.598 16.1279 16.598 16.128 16.598C16.1281 16.598 16.1282 16.5979 16.1282 16.5979C16.1283 16.5979 16.1285 16.5979 16.2292 17.0876C16.3298 17.5774 16.33 17.5774 16.3302 17.5773C16.3302 17.5773 16.3304 17.5773 16.3305 17.5773C16.3307 17.5772 16.331 17.5772 16.3313 17.5771C16.3319 17.577 16.3326 17.5768 16.3334 17.5767C16.3351 17.5763 16.3371 17.5759 16.3396 17.5753C16.3445 17.5743 16.3512 17.5728 16.3593 17.571C16.3757 17.5673 16.3983 17.562 16.4264 17.555C16.4823 17.541 16.5603 17.5201 16.6532 17.4915C16.8371 17.4348 17.0878 17.345 17.3431 17.2138C17.8132 16.9722 18.5 16.482 18.5 15.6315H17.5ZM16.2292 11.5573C16.1102 12.0429 16.1101 12.0429 16.11 12.0429C16.1099 12.0429 16.1098 12.0428 16.1097 12.0428C16.1096 12.0428 16.1095 12.0428 16.1094 12.0427C16.1093 12.0427 16.1092 12.0427 16.1093 12.0427C16.1094 12.0427 16.1099 12.0429 16.1108 12.0431C16.1126 12.0435 16.1159 12.0444 16.1208 12.0457C16.1304 12.0483 16.1459 12.0525 16.1664 12.0584C16.2075 12.0703 16.2681 12.0888 16.3416 12.1144C16.4903 12.1661 16.6836 12.2436 16.8725 12.3482C17.2911 12.5798 17.5 12.8334 17.5 13.0832H18.5C18.5 12.2408 17.8235 11.7315 17.3566 11.4732C17.1029 11.3328 16.8534 11.2336 16.6701 11.1699C16.5776 11.1377 16.4998 11.1138 16.4441 11.0977C16.4161 11.0896 16.3936 11.0835 16.3774 11.0792C16.3692 11.077 16.3626 11.0753 16.3577 11.0741C16.3553 11.0734 16.3532 11.0729 16.3516 11.0725C16.3508 11.0723 16.3501 11.0721 16.3495 11.072C16.3493 11.0719 16.349 11.0719 16.3487 11.0718C16.3486 11.0718 16.3485 11.0717 16.3484 11.0717C16.3483 11.0717 16.3481 11.0716 16.2292 11.5573ZM17.5 13.0832C17.5 13.2745 17.3676 13.4375 16.9672 13.561C16.7876 13.6164 16.6011 13.6458 16.4547 13.6608C16.3828 13.6682 16.3235 13.6719 16.2833 13.6736C16.2632 13.6745 16.2481 13.6749 16.2388 13.6751C16.2341 13.6752 16.2309 13.6753 16.2293 13.6753C16.2285 13.6753 16.228 13.6753 16.228 13.6753C16.228 13.6753 16.2281 13.6753 16.2283 13.6753C16.2284 13.6753 16.2285 13.6753 16.2286 13.6753C16.2287 13.6753 16.2288 13.6753 16.2289 13.6753C16.229 13.6753 16.2292 13.6753 16.2292 14.1753C16.2292 14.6753 16.2293 14.6753 16.2295 14.6753C16.2296 14.6753 16.2297 14.6753 16.2299 14.6753C16.2301 14.6753 16.2304 14.6753 16.2307 14.6753C16.2313 14.6753 16.2321 14.6753 16.2329 14.6753C16.2346 14.6753 16.2367 14.6753 16.2392 14.6752C16.2443 14.6752 16.251 14.6751 16.2593 14.6749C16.2759 14.6746 16.2989 14.6739 16.3273 14.6727C16.3839 14.6702 16.4629 14.6653 16.557 14.6556C16.7427 14.6365 16.9988 14.5977 17.2619 14.5166C17.747 14.367 18.5 13.984 18.5 13.0832H17.5ZM16.9376 9.57873C17.0378 9.57871 17.1917 9.61112 17.3063 9.69502C17.3951 9.75999 17.5 9.88111 17.5 10.1708H18.5C18.5 9.57179 18.2507 9.14685 17.8968 8.88794C17.5688 8.64796 17.1914 8.57868 16.9374 8.57873L16.9376 9.57873ZM17.5 10.1708C17.5 10.2162 17.4788 10.2959 17.3639 10.4147C17.2489 10.5336 17.0783 10.6503 16.8797 10.7559C16.6853 10.8594 16.4868 10.9404 16.3345 10.9959C16.2591 11.0234 16.1968 11.044 16.1542 11.0575C16.1329 11.0643 16.1167 11.0692 16.1063 11.0723C16.1012 11.0738 16.0975 11.0749 16.0953 11.0755C16.0943 11.0758 16.0936 11.076 16.0934 11.0761C16.0932 11.0761 16.0932 11.0761 16.0933 11.0761C16.0933 11.0761 16.0934 11.0761 16.0935 11.0761C16.0935 11.076 16.0936 11.076 16.0937 11.076C16.0938 11.076 16.0939 11.076 16.2292 11.5573C16.3645 12.0386 16.3646 12.0386 16.3647 12.0386C16.3648 12.0386 16.3649 12.0385 16.365 12.0385C16.3652 12.0384 16.3654 12.0384 16.3657 12.0383C16.3662 12.0382 16.3668 12.038 16.3675 12.0378C16.369 12.0374 16.3709 12.0368 16.3732 12.0362C16.3777 12.0348 16.384 12.033 16.3918 12.0307C16.4074 12.026 16.4292 12.0194 16.4563 12.0108C16.5106 11.9936 16.5866 11.9684 16.6772 11.9354C16.8569 11.8698 17.1012 11.7708 17.3494 11.6387C17.5936 11.5088 17.8656 11.3344 18.0827 11.11C18.2998 10.8855 18.5 10.5697 18.5 10.1708H17.5ZM16.2292 17.0876C15.9972 17.5306 15.9971 17.5305 15.997 17.5305C15.997 17.5305 15.9969 17.5304 15.9968 17.5304C15.9967 17.5303 15.9966 17.5303 15.9965 17.5302C15.9964 17.5302 15.9963 17.5301 15.9963 17.5301C15.9963 17.5301 15.9966 17.5302 15.9971 17.5305C15.9982 17.5311 16.0005 17.5323 16.0037 17.5341C16.0102 17.5376 16.0208 17.5435 16.0348 17.5515C16.0628 17.5675 16.1043 17.592 16.1541 17.6237C16.2551 17.688 16.3834 17.7776 16.5028 17.8829C16.6256 17.9912 16.7182 18.0978 16.77 18.1917C16.819 18.2807 16.8142 18.324 16.8087 18.3449L17.7747 18.6034C17.8665 18.2602 17.7776 17.9482 17.6457 17.7089C17.5165 17.4747 17.3313 17.2801 17.1641 17.1328C16.9936 16.9825 16.8197 16.862 16.6911 16.7801C16.626 16.7387 16.5708 16.706 16.5309 16.6832C16.5109 16.6718 16.4946 16.6628 16.4828 16.6563C16.4769 16.6531 16.472 16.6505 16.4684 16.6486C16.4666 16.6476 16.4651 16.6468 16.4639 16.6461C16.4632 16.6458 16.4627 16.6455 16.4623 16.6453C16.462 16.6452 16.4618 16.6451 16.4616 16.645C16.4615 16.6449 16.4614 16.6449 16.4614 16.6448C16.4612 16.6448 16.4611 16.6447 16.2292 17.0876ZM16.8087 18.3449C16.7267 18.6511 16.5882 18.9312 16.3569 19.1349C16.1336 19.3315 15.7753 19.5 15.1667 19.5V20.5C15.9747 20.5 16.5815 20.2696 17.0178 19.8853C17.4462 19.5081 17.6618 19.0253 17.7747 18.6034L16.8087 18.3449Z" fill="#68745C"/>
</svg>
