<svg width="15" height="13" viewBox="0 0 15 13" fill="none" xmlns="http://www.w3.org/2000/svg">
<path d="M14.301 2.26647C13.783 2.49562 13.2336 2.64613 12.6711 2.71301C13.2637 2.35826 13.7072 1.80018 13.9188 1.14275C13.362 1.4736 12.7525 1.70645 12.1169 1.8312C11.5803 1.25879 10.8305 0.934416 10.0459 0.935305C8.47893 0.935305 7.20804 2.20577 7.20804 3.77342C7.20804 3.99582 7.23355 4.2115 7.28125 4.4196C4.92177 4.30082 2.8315 3.17168 1.43141 1.45446C1.17933 1.88756 1.04685 2.37987 1.04752 2.88099C1.04752 3.86555 1.54868 4.73456 2.30997 5.24332C1.85931 5.22907 1.41859 5.10737 1.02454 4.88825C1.02411 4.90017 1.02411 4.91209 1.02411 4.92336C1.02411 6.29877 2.00237 7.4461 3.30102 7.70661C3.05728 7.77256 2.80589 7.80588 2.55339 7.80568C2.37001 7.80568 2.19204 7.78878 2.01906 7.7556C2.38041 8.88284 3.42782 9.70351 4.67011 9.72604C3.66483 10.515 2.42342 10.9431 1.1455 10.9412C0.919321 10.9414 0.693337 10.9281 0.46875 10.9013C1.76612 11.7354 3.27627 12.178 4.8186 12.1764C10.039 12.1764 12.8933 7.85209 12.8933 4.10204C12.8933 3.97935 12.8903 3.85623 12.8849 3.73484C13.4404 3.33345 13.92 2.83621 14.301 2.26647Z" fill="#1E2320"/>
</svg>
